<svg id="Livello_5" data-name="Livello 5" xmlns="http://www.w3.org/2000/svg" viewBox="0 0 102.5 102.5"><defs><style>.cls-1{fill:#f2f2f2;stroke:#9b2d5e;stroke-miterlimit:10;stroke-width:0.5px;}.cls-2{fill:#664796;}.cls-3{fill:#20234a;}.cls-4,.cls-5{fill:none;stroke:#20234a;stroke-linecap:round;stroke-linejoin:round;}.cls-5{stroke-dasharray:0.49 2.96;}</style></defs><title>born</title><path class="cls-1" d="M37.21,18.26c-1.45-4-9.26-4.35-12-4.37L24.09,10.4a.67.67,0,0,0-.41-.41l-1.6-.57-1.29-3a.68.68,0,0,0-.58-.4l-.92,0C15,6,9.2,7.47,7.12,11.63a.72.72,0,0,0-.06.29V30.3a.67.67,0,0,0,.2.48.65.65,0,0,0,.5.17l1.92-.11V27.67a2,2,0,1,1,3.94,0v2.94l1.32-.06V27a2,2,0,1,1,3.93,0v3.36l1.32-.05v-4a2,2,0,1,1,3.93,0v4l1.32.05V27a2,2,0,0,1,3.94,0v3.55l1.31.06v-3a2,2,0,0,1,3.94,0v3.17l1.93.11h0a.63.63,0,0,0,.45-.18.61.61,0,0,0,.21-.47V18.48a.57.57,0,0,0,0-.22ZM13.62,22.12a.65.65,0,0,1-.62.65l-2.62.15h0a.63.63,0,0,1-.45-.18.67.67,0,0,1-.21-.48V19.8a2,2,0,1,1,3.94,0Zm0-7.22a.65.65,0,0,1-.62.65l-2.62.15h0a.63.63,0,0,1-.45-.18A.67.67,0,0,1,9.68,15V12.58a2,2,0,1,1,3.94,0Zm5.25,7a.65.65,0,0,1-.63.65l-2.62.12h0a.67.67,0,0,1-.45-.18.68.68,0,0,1-.21-.48V19.14a2,2,0,0,1,3.94,0Zm0-7.22a.65.65,0,0,1-.63.65l-2.62.12h0a.67.67,0,0,1-.45-.18.68.68,0,0,1-.21-.48V11.92a2,2,0,0,1,3.94,0Zm5.25,7.14a.63.63,0,0,1-.2.47.63.63,0,0,1-.45.18h0c-1.08,0-1.7,0-2.6,0a.7.7,0,0,1-.47-.19.67.67,0,0,1-.2-.47v-3.3a2,2,0,0,1,3.94,0Zm5.25.21a.66.66,0,0,1-.2.48.63.63,0,0,1-.45.18h0l-2.63-.12a.66.66,0,0,1-.62-.66V19.14a2,2,0,1,1,3.93,0V22Zm5.05.75a.63.63,0,0,1-.45.18h0l-2.62-.14a.66.66,0,0,1-.62-.66V19.8a2,2,0,1,1,3.93,0v2.47a.64.64,0,0,1-.2.48Z"/><path class="cls-2" d="M86.05,62.24h3.53a.88.88,0,0,0,.89-.88v-.88a.88.88,0,0,0-.49-.79l-1.28-.64V45.47a.89.89,0,1,0-1.77,0V59.05l-1.27.64a.88.88,0,0,0-.49.79v.88a.87.87,0,0,0,.88.88Z"/><path class="cls-2" d="M88.7,77.88l9.14-1.22a.92.92,0,0,0,.64-.43.87.87,0,0,0,.06-.77,14.75,14.75,0,0,0-5.67-6.91L88.7,69.94Z"/><path class="cls-2" d="M88.7,68.08l3.53-1.18v-2a.87.87,0,0,0-.88-.88H88.7Z"/><path class="cls-2" d="M77.08,75.5a.88.88,0,0,0,0,.76.91.91,0,0,0,.63.43l9.08,1.4h.06l0-.1V70L82.5,68.7a14.93,14.93,0,0,0-5.42,6.8Z"/><path class="cls-2" d="M101,84l-.79-2.36L101,79.3a.88.88,0,0,0-1-1.16L88.22,79.72l-.41,1.2v5.93l12.48-1.66a.91.91,0,0,0,.63-.41A.83.83,0,0,0,101,84Z"/><path class="cls-2" d="M83.4,64.89v2.24l3.53,1V64H84.28a.88.88,0,0,0-.88.88Z"/><path class="cls-2" d="M74.78,78.45a.87.87,0,0,0-.16.85l.79,2.37L74.62,84a.91.91,0,0,0,.08.74.87.87,0,0,0,.62.42l10.73,1.65V80.78a.86.86,0,0,1,0-.27l.23-.71L75.59,78.15A.87.87,0,0,0,74.78,78.45Z"/><path class="cls-3" d="M41.44,95.66s0,0,0,0,0,0,0-.06a6.93,6.93,0,0,0,.29-.67l.33-.91c.12-.32.24-.67.36-1s.24-.7.36-1,.24-.63.35-.9a4.94,4.94,0,0,1,.34-.66.64.64,0,0,1,.28-.29c.08,0,.16,0,.22.19a.81.81,0,0,1,.05.46,1.62,1.62,0,0,1-.15.49,4.09,4.09,0,0,1-.26.51c-.1.17-.2.34-.28.51a5.49,5.49,0,0,0-.21.51,1.06,1.06,0,0,0,0,.5,1.25,1.25,0,0,0,.49-.27c.15-.13.29-.27.43-.41a5.51,5.51,0,0,1,.43-.41,1.24,1.24,0,0,1,.52-.24,1.3,1.3,0,0,1,.77,0,1,1,0,0,1,.47.41,1.33,1.33,0,0,1,.14.65,2,2,0,0,1-.2.79,2.87,2.87,0,0,1-.55.8,3.66,3.66,0,0,1-.94.7,5.26,5.26,0,0,1-1.34.47,6.52,6.52,0,0,1-1.76.11l-.06-.1A.42.42,0,0,1,41.44,95.66Zm.87-.55s0,.08,0,.16,0,.14,0,.16a3.12,3.12,0,0,0,1.32-.1,3.4,3.4,0,0,0,1.17-.59,2.85,2.85,0,0,0,.82-1,2.23,2.23,0,0,0,.24-1.28l0-.06-.07-.05a1.42,1.42,0,0,0-.67.06,3.13,3.13,0,0,0-.71.31,4,4,0,0,0-.67.51,5.74,5.74,0,0,0-.6.61,5.49,5.49,0,0,0-.48.66A3.79,3.79,0,0,0,42.31,95.11Z"/><path class="cls-3" d="M47.07,95.81a.59.59,0,0,1-.21-.46,2.22,2.22,0,0,1,.08-.69,5.55,5.55,0,0,1,.32-.8,5.47,5.47,0,0,1,.48-.8,4.79,4.79,0,0,1,.59-.67,2.5,2.5,0,0,1,.64-.45,1.09,1.09,0,0,1,.63-.1.91.91,0,0,1,.55.35.82.82,0,0,1,.19.4,1.08,1.08,0,0,1,0,.4,2.54,2.54,0,0,1-.12.43c-.06.14-.12.28-.17.43a2.32,2.32,0,0,0-.13.45,1.18,1.18,0,0,0,0,.46.36.36,0,0,0,.26.35,1.28,1.28,0,0,0,.54,0,2.9,2.9,0,0,0,.67-.28c.24-.12.45-.25.66-.37s.43-.28.69-.47c.15,0,.23,0,.25,0s0,.12-.09.22a1.8,1.8,0,0,1-.34.32,4.16,4.16,0,0,1-.51.36,5.12,5.12,0,0,1-.62.31,2.32,2.32,0,0,1-.64.19,1.67,1.67,0,0,1-.59,0,.85.85,0,0,1-.46-.28.67.67,0,0,1-.12-.19.43.43,0,0,0-.14-.16,3.66,3.66,0,0,0-.28.28,4,4,0,0,1-.36.35l-.4.34A1.74,1.74,0,0,1,48,96a1,1,0,0,1-.45.05A.74.74,0,0,1,47.07,95.81Zm.08-.26a.28.28,0,0,0,.31.23,1.4,1.4,0,0,0,.57-.24,4.37,4.37,0,0,0,.66-.6,4.8,4.8,0,0,0,.62-.84,4.46,4.46,0,0,0,.42-1,2.54,2.54,0,0,0,.07-1,.42.42,0,0,0-.47,0,2.4,2.4,0,0,0-.6.44,5.26,5.26,0,0,0-.62.74,6.13,6.13,0,0,0-.54.86,4.6,4.6,0,0,0-.36.81A1.15,1.15,0,0,0,47.15,95.55Z"/><path class="cls-3" d="M52.33,95.9c-.06,0-.06-.09,0-.16a1.08,1.08,0,0,1,.29-.23l.46-.25.51-.25L54,94.8l.24-.14a.64.64,0,0,0,.27-.36.25.25,0,0,0-.13-.24,1.72,1.72,0,0,0-.39-.14l-.53-.09L53,93.74a1.21,1.21,0,0,1-.38-.12.17.17,0,0,1-.08-.21.81.81,0,0,1,.34-.33l.32-.23.46-.3c.16-.11.33-.2.49-.29a2.52,2.52,0,0,1,.4-.16.37.37,0,0,1,.18,0,.28.28,0,0,1,.14.09.16.16,0,0,1,.06.12.19.19,0,0,1-.11.13l-.86.47a8.2,8.2,0,0,0-.82.5.11.11,0,0,0,0,.11l.08.07a5.74,5.74,0,0,1,1.25.24,1,1,0,0,1,.53.34.33.33,0,0,1,0,.4,1.78,1.78,0,0,1-.41.42,5.41,5.41,0,0,1-.64.38,6.57,6.57,0,0,1-.69.3,4.28,4.28,0,0,1-.58.19C52.47,95.92,52.37,95.93,52.33,95.9Z"/><path class="cls-3" d="M55.86,95.9a.74.74,0,0,1-.35-.23.83.83,0,0,1-.16-.36,1.13,1.13,0,0,1,0-.41,1.43,1.43,0,0,1,.09-.41l.52-.57c.2-.22.4-.43.62-.64a7.56,7.56,0,0,1,.69-.58,2.61,2.61,0,0,1,.72-.41.18.18,0,0,1,.2,0,.31.31,0,0,1,.1.19.8.8,0,0,1,0,.28,1.66,1.66,0,0,1,0,.32,1.24,1.24,0,0,1-.06.29.38.38,0,0,1-.08.17,1.39,1.39,0,0,1-.36.26l-.6.32-.65.36a3.84,3.84,0,0,0-.54.37.72.72,0,0,0-.25.37c0,.12,0,.23.22.33a2.42,2.42,0,0,0,.64,0,7.54,7.54,0,0,0,.77-.16c.27-.06.52-.13.77-.2l.6-.17.09.09a1.43,1.43,0,0,1-.56.41,4.41,4.41,0,0,1-.84.31,6,6,0,0,1-.89.16A1.73,1.73,0,0,1,55.86,95.9Zm1.87-3-.12.07-.27.19-.34.27-.34.27-.25.21q-.1.09-.09.09a.66.66,0,0,0,.33,0,2.75,2.75,0,0,0,.41-.17,2.8,2.8,0,0,0,.41-.25,1.43,1.43,0,0,0,.31-.27.43.43,0,0,0,.12-.23C57.9,93,57.84,93,57.73,92.92Z"/><path class="cls-3" d="M62,95.81a1.15,1.15,0,0,1-.43-.5,2.73,2.73,0,0,1-.2-.65h-.08a8.66,8.66,0,0,1-1.1.78,2.7,2.7,0,0,1-.79.31.72.72,0,0,1-.5,0,.52.52,0,0,1-.23-.31,1,1,0,0,1,0-.49,2.31,2.31,0,0,1,.24-.57,2.81,2.81,0,0,1,.45-.54,2.31,2.31,0,0,1,.63-.42,2.49,2.49,0,0,1,.79-.21,2.35,2.35,0,0,1,.93.1l.09-.1,1-2.11c.14,0,.23.08.25.18a.69.69,0,0,1,0,.35,1.74,1.74,0,0,1-.13.36,2,2,0,0,1-.12.25.73.73,0,0,1-.09.18c0,.09-.1.2-.15.32l-.2.39-.19.38c-.06.13-.11.23-.16.32L62,94a1.18,1.18,0,0,0-.13.61c0,.22,0,.43,0,.62a.44.44,0,0,0,.13.23l.2.17.21.14a.69.69,0,0,1,.17.17c0,.07-.06.11-.12.11l-.2,0a1,1,0,0,1-.18-.1ZM59,95.46c0,.09.1.11.24.08a2.3,2.3,0,0,0,.49-.23,6.26,6.26,0,0,0,.6-.43,7.26,7.26,0,0,0,.57-.5,3.72,3.72,0,0,0,.4-.46c.09-.14.12-.24.09-.31a1.13,1.13,0,0,0-.54-.13,1.7,1.7,0,0,0-.59.1,2.23,2.23,0,0,0-.57.3,1.88,1.88,0,0,0-.45.44,1.68,1.68,0,0,0-.26.54A1.11,1.11,0,0,0,59,95.46Z"/><path class="cls-3" d="M67.14,95.9a15,15,0,0,1,.58-1.63,4.18,4.18,0,0,1,.44-.85c.11-.16.19-.21.23-.16s0,.21,0,.44a5.59,5.59,0,0,1-.31.94A10.47,10.47,0,0,1,67.4,96a.24.24,0,0,1-.15,0A.14.14,0,0,1,67.14,95.9Zm1.36-3.75a.53.53,0,0,1,0-.14.38.38,0,0,1,0-.13.34.34,0,0,1,.28,0,.18.18,0,0,1,.11.13.31.31,0,0,1,0,.19.35.35,0,0,1-.09.16.12.12,0,0,1-.14,0C68.6,92.34,68.55,92.27,68.5,92.15Z"/><path class="cls-3" d="M72.08,95.9a1.76,1.76,0,0,1,0-.51,5,5,0,0,1,.18-.5c.08-.16.16-.33.25-.49a5.11,5.11,0,0,0,.22-.48,2.21,2.21,0,0,0,.13-.47.9.9,0,0,0,0-.46.6.6,0,0,0-.45,0,2.27,2.27,0,0,0-.53.31c-.19.14-.39.3-.59.48l-.58.57-.54.54-.47.43a1.14,1.14,0,0,1-.35.21.13.13,0,0,1-.18-.1s0-.07.09-.2.14-.29.24-.48.2-.4.32-.63.23-.43.33-.62.19-.36.27-.5a.85.85,0,0,1,.15-.22.3.3,0,0,1,.17.24.78.78,0,0,1,0,.26,2.33,2.33,0,0,1-.11.28.45.45,0,0,0,0,.28l.35-.23c.15-.11.31-.21.48-.32s.36-.22.55-.32a3.19,3.19,0,0,1,.54-.25,1.61,1.61,0,0,1,.44-.1.35.35,0,0,1,.3.12.61.61,0,0,1,.06.41,3.53,3.53,0,0,1-.25.78l-.11.26-.2.45-.19.44a2.54,2.54,0,0,1-.12.26s0,.06,0,.12a1.41,1.41,0,0,1,0,.18,1.21,1.21,0,0,1,0,.18.37.37,0,0,1-.08.14s-.07,0-.11,0Z"/><path class="cls-3" d="M79.1,95.9a.94.94,0,0,1,0-.44,3.67,3.67,0,0,1,.14-.52c.07-.17.13-.33.21-.49l.18-.4a2.31,2.31,0,0,1,.12-.27l.18-.41c.08-.15.15-.31.22-.47l.22-.48c.07-.15.14-.28.19-.4a2.36,2.36,0,0,1,.12-.26,1,1,0,0,0-.38,0l-.54.12-.61.15a5,5,0,0,1-.58.12,1.75,1.75,0,0,1-.46,0,.25.25,0,0,1-.24-.16.89.89,0,0,1,.4-.23c.23-.09.52-.18.88-.28l1.19-.29,1.35-.28L83,90.69q.66-.12,1.17-.18l.84-.1c.21,0,.32,0,.33,0a.35.35,0,0,1,0,.15.13.13,0,0,1-.11.11l-.82.14-.91.16-.89.16-.81.16a.94.94,0,0,0-.47.28,3.51,3.51,0,0,0-.44.58,8.06,8.06,0,0,0-.41.78c-.13.28-.25.57-.37.86l-.32.84c-.1.28-.19.51-.27.72s-.16.37-.22.48-.12.16-.16.14l0,0Z"/><path class="cls-3" d="M85.46,95.9a.84.84,0,0,1-.34-.22,1,1,0,0,1-.19-.32,1.66,1.66,0,0,1-.11-.38c0-.13,0-.27-.07-.4s-.13,0-.25.09-.26.2-.42.34l-.5.41a2.16,2.16,0,0,1-.52.32.68.68,0,0,1-.46,0c-.14,0-.25-.18-.32-.41a.59.59,0,0,1,0-.34,3.54,3.54,0,0,1,.2-.48c.09-.18.19-.36.31-.56s.23-.36.35-.53.21-.3.31-.42a1.23,1.23,0,0,1,.22-.23.25.25,0,0,1,.16.26,1.17,1.17,0,0,1-.14.41,3.49,3.49,0,0,1-.31.48q-.2.26-.36.51a3.45,3.45,0,0,0-.27.49.63.63,0,0,0-.06.41.47.47,0,0,0,.43-.07,3.94,3.94,0,0,0,.55-.4c.19-.17.39-.37.6-.59l.57-.64.47-.55c.14-.15.24-.26.3-.31a.26.26,0,0,1,.16.25,1.13,1.13,0,0,1-.09.41c-.06.15-.13.31-.22.49a4.77,4.77,0,0,0-.22.52,1.81,1.81,0,0,0-.11.49.53.53,0,0,0,.13.4l.26.32h.79s0,0,0,0l-.08.1a.69.69,0,0,1-.13.11l-.07,0a.7.7,0,0,1-.32,0A1.43,1.43,0,0,1,85.46,95.9Z"/><path class="cls-3" d="M86.82,95.9s0-.06,0-.18,0-.26.06-.44.06-.37.1-.59.08-.41.13-.61.1-.37.15-.52a1.12,1.12,0,0,1,.16-.3s.08,0,.11,0a.69.69,0,0,1,.11.13l.11.13a.08.08,0,0,0,.12,0,4.34,4.34,0,0,1,.48-.58,3.37,3.37,0,0,1,.58-.48.6.6,0,0,1,.17-.07l.32-.11.37-.08a1,1,0,0,1,.33,0,.21.21,0,0,1,.19.07s0,.12,0,.22a1.65,1.65,0,0,0-.88.27,3.86,3.86,0,0,0-.75.66,6,6,0,0,0-.62.85c-.19.3-.35.58-.49.84l-.34.65c-.09.17-.16.26-.2.26l-.07,0Z"/><path class="cls-3" d="M90.48,95.9c.21-.68.41-1.23.58-1.63a4.78,4.78,0,0,1,.44-.85c.12-.16.2-.21.24-.16a.7.7,0,0,1,0,.44,5.8,5.8,0,0,1-.32.94A11.73,11.73,0,0,1,90.75,96a.26.26,0,0,1-.15,0A.14.14,0,0,1,90.48,95.9Zm1.37-3.75a.46.46,0,0,1,0-.14.31.31,0,0,1,0-.13.32.32,0,0,1,.27,0,.22.22,0,0,1,.12.13.41.41,0,0,1,0,.19.24.24,0,0,1-.09.16.12.12,0,0,1-.14,0Q91.91,92.33,91.85,92.15Z"/><path class="cls-3" d="M95.43,95.9a1.26,1.26,0,0,1,0-.51,2.51,2.51,0,0,1,.18-.5c.07-.16.15-.33.24-.49a3.41,3.41,0,0,0,.22-.48,2.26,2.26,0,0,0,.14-.47,1,1,0,0,0,0-.46.57.57,0,0,0-.44,0,2.55,2.55,0,0,0-.54.31c-.19.14-.38.3-.58.48l-.59.57-.54.54c-.17.17-.33.31-.47.43a1.12,1.12,0,0,1-.34.21.14.14,0,0,1-.19-.1s0-.07.09-.2.14-.29.24-.48l.32-.63.33-.62.28-.5c.07-.14.12-.21.15-.22a.31.31,0,0,1,.16.24.59.59,0,0,1,0,.26,2.33,2.33,0,0,1-.11.28.45.45,0,0,0,0,.28l.34-.23c.15-.11.31-.21.49-.32s.35-.22.54-.32a3.19,3.19,0,0,1,.54-.25,1.76,1.76,0,0,1,.45-.1.34.34,0,0,1,.29.12.61.61,0,0,1,.06.41,3.06,3.06,0,0,1-.25.78s0,.12-.11.26l-.19.45-.2.44-.11.26a.71.71,0,0,0,0,.12q0,.08,0,.18a1.21,1.21,0,0,1,0,.18.27.27,0,0,1-.08.14s-.06,0-.1,0S95.43,95.92,95.43,95.9Z"/><path class="cls-3" d="M12.6,39.43s0,0,0,0a.08.08,0,0,1,0-.05c.09-.17.18-.4.29-.67l.33-.91c.12-.33.23-.67.36-1s.24-.69.36-1,.24-.63.35-.91a4.94,4.94,0,0,1,.34-.66.65.65,0,0,1,.28-.29c.08,0,.16,0,.22.19a.84.84,0,0,1,0,.47A1.77,1.77,0,0,1,15,35a4.09,4.09,0,0,1-.26.51c-.1.17-.2.35-.28.51a3.66,3.66,0,0,0-.21.51,1.23,1.23,0,0,0,0,.5,1.1,1.1,0,0,0,.5-.26c.14-.13.29-.27.43-.42a5.36,5.36,0,0,1,.43-.4,1.1,1.1,0,0,1,.52-.25,1.29,1.29,0,0,1,.77,0,.87.87,0,0,1,.46.4,1.24,1.24,0,0,1,.15.66,2.24,2.24,0,0,1-.2.79,2.85,2.85,0,0,1-.56.8,3.57,3.57,0,0,1-.93.69,5.26,5.26,0,0,1-1.34.47,7,7,0,0,1-1.76.12l-.06-.11A.42.42,0,0,1,12.6,39.43Zm.87-.54s0,.08,0,.16,0,.13,0,.16a3.29,3.29,0,0,0,1.32-.1,3.42,3.42,0,0,0,1.17-.6,2.9,2.9,0,0,0,.82-1A2.34,2.34,0,0,0,17,36.23L17,36.17l-.06-.05a1.56,1.56,0,0,0-.67.06,3.18,3.18,0,0,0-.71.32,5.15,5.15,0,0,0-.68.5c-.21.2-.41.4-.6.62a4.63,4.63,0,0,0-.47.65A3.86,3.86,0,0,0,13.47,38.89Z"/><path class="cls-3" d="M18.4,39.68a.63.63,0,0,1-.41-.4,1,1,0,0,1,0-.59,2.61,2.61,0,0,1,.3-.67,3.77,3.77,0,0,1,.47-.64,3.94,3.94,0,0,1,.52-.49,1.05,1.05,0,0,1,.44-.22,1.41,1.41,0,0,1,.77.07.72.72,0,0,1,.38.37,1.13,1.13,0,0,1,.05.56,2.11,2.11,0,0,1-.21.66,2.72,2.72,0,0,1-.41.63,3,3,0,0,1-.56.51,1.91,1.91,0,0,1-.66.28A1.23,1.23,0,0,1,18.4,39.68Zm-.09-.45a.32.32,0,0,0,.27.28.8.8,0,0,0,.47-.1,2.82,2.82,0,0,0,.57-.38,5.39,5.39,0,0,0,.54-.53,3.35,3.35,0,0,0,.4-.58,1.09,1.09,0,0,0,.16-.51.37.37,0,0,0-.21-.34,1.21,1.21,0,0,0-.69,0l-.28.25c-.12.09-.24.2-.36.31l-.36.37a2.76,2.76,0,0,0-.31.41,1.66,1.66,0,0,0-.2.43A.89.89,0,0,0,18.31,39.23Z"/><path class="cls-3" d="M21.37,39.68s0-.07,0-.18,0-.27.06-.45.06-.37.1-.58.09-.42.13-.62.1-.36.15-.51A1.22,1.22,0,0,1,22,37s.08,0,.11,0a.43.43,0,0,1,.11.12l.11.13s.08,0,.12,0a6.86,6.86,0,0,1,.48-.59,3.37,3.37,0,0,1,.58-.48l.17-.07.32-.1c.12,0,.25-.06.38-.09l.32,0a.24.24,0,0,1,.19.07c0,.05,0,.12-.05.22a1.63,1.63,0,0,0-.87.28,3.08,3.08,0,0,0-.75.65,6.68,6.68,0,0,0-.63.85c-.19.31-.35.59-.49.85l-.34.65c-.09.17-.16.25-.2.25l-.07,0Z"/><path class="cls-3" d="M28,39.68a1.48,1.48,0,0,1,.05-.51,2.3,2.3,0,0,1,.18-.5c.07-.17.15-.33.24-.5a5.11,5.11,0,0,0,.22-.48,2.06,2.06,0,0,0,.13-.47.91.91,0,0,0,0-.46.66.66,0,0,0-.45,0,2.21,2.21,0,0,0-.53.3,6.05,6.05,0,0,0-.58.49c-.21.18-.4.37-.59.56l-.54.54a5.45,5.45,0,0,1-.47.43,1.14,1.14,0,0,1-.35.21c-.09,0-.15,0-.18-.1s0-.07.09-.2l.24-.48c.09-.19.2-.4.32-.62l.33-.63c.1-.2.2-.36.27-.5a1.67,1.67,0,0,1,.15-.22c.11.08.17.16.17.24a.84.84,0,0,1,0,.27c0,.09-.07.18-.11.28a.44.44,0,0,0,0,.28l.35-.24.48-.32.55-.32a4.09,4.09,0,0,1,.54-.24,1.31,1.31,0,0,1,.45-.1.3.3,0,0,1,.29.12.6.6,0,0,1,.06.41,3.33,3.33,0,0,1-.25.77s-.05.13-.11.27l-.2.44-.19.45-.12.26a.89.89,0,0,1,0,.11,1.1,1.1,0,0,1,0,.18,1.05,1.05,0,0,1-.05.19.32.32,0,0,1-.08.13s-.07,0-.11,0Z"/><path class="cls-3" d="M33.72,39.68c.22-.69.41-1.23.59-1.64a5.82,5.82,0,0,1,.43-.85Q34.92,37,35,37c0,.06,0,.2,0,.44a6.25,6.25,0,0,1-.31.94A11.1,11.1,0,0,1,34,39.76a.24.24,0,0,1-.15,0A.16.16,0,0,1,33.72,39.68Zm1.37-3.76a.45.45,0,0,1,0-.14c0-.07,0-.11,0-.12a.35.35,0,0,1,.28,0,.19.19,0,0,1,.11.14.31.31,0,0,1,0,.19.27.27,0,0,1-.09.15.16.16,0,0,1-.15,0A.46.46,0,0,1,35.09,35.92Z"/><path class="cls-3" d="M38.67,39.68a1.47,1.47,0,0,1,0-.51,4.24,4.24,0,0,1,.18-.5l.24-.5a5.24,5.24,0,0,0,.23-.48,2.75,2.75,0,0,0,.13-.47.91.91,0,0,0,0-.46.66.66,0,0,0-.45,0,2.47,2.47,0,0,0-.54.3,7.59,7.59,0,0,0-.58.49c-.2.18-.39.37-.58.56l-.55.54a4.29,4.29,0,0,1-.46.43,1.27,1.27,0,0,1-.35.21.13.13,0,0,1-.19-.1l.09-.2c.07-.12.15-.28.25-.48s.2-.4.32-.62l.33-.63c.1-.2.19-.36.27-.5a1.67,1.67,0,0,1,.15-.22.36.36,0,0,1,.17.24.65.65,0,0,1-.05.27c0,.09-.06.18-.1.28a.39.39,0,0,0,0,.28l.35-.24.48-.32.55-.32a4.68,4.68,0,0,1,.53-.24,1.42,1.42,0,0,1,.45-.1.31.31,0,0,1,.3.12.56.56,0,0,1,.05.41,2.81,2.81,0,0,1-.24.77,2.65,2.65,0,0,0-.11.27l-.2.44-.2.45c-.06.13-.09.22-.11.26a.89.89,0,0,1,0,.11l0,.18a1.06,1.06,0,0,1,0,.19.32.32,0,0,1-.08.13s-.07,0-.11,0Z"/><path class="cls-3" d="M44.47,39.68a.86.86,0,0,1,.07-.56c.09-.25.21-.54.36-.86s.33-.65.52-1,.36-.66.52-1,.29-.55.39-.77.14-.34.12-.4a.25.25,0,0,0-.2,0l-.21.1a.58.58,0,0,1-.21.07.23.23,0,0,1-.18-.11.15.15,0,0,1,0-.11.26.26,0,0,1,0-.1l.08-.08.08-.06A9.75,9.75,0,0,1,47.52,34,7.29,7.29,0,0,1,49,33.51a3.31,3.31,0,0,1,1.07,0,.89.89,0,0,1,.59.28.53.53,0,0,1,0,.56,2.23,2.23,0,0,1-.66.76,8.6,8.6,0,0,1-1.46.9,19.27,19.27,0,0,1-2.37,1,.24.24,0,0,0,.05.28,1.71,1.71,0,0,0,.36.34,4.52,4.52,0,0,0,.56.38l.66.4.63.39a4.84,4.84,0,0,1,.49.36,1,1,0,0,1,.26.32.2.2,0,0,1-.11.26L49,39.62l-.23-.17-.28-.23L48.16,39l-.24-.18-.11-.1-.94-.58a10.87,10.87,0,0,1-.91-.65q-.15,0-.3.15a3.45,3.45,0,0,0-.29.52c-.09.21-.18.44-.27.68s-.18.44-.26.61a1.29,1.29,0,0,1-.21.36C44.57,39.86,44.51,39.82,44.47,39.68Zm1.86-3.26a.8.8,0,0,0,.46,0,3.47,3.47,0,0,0,.65-.21c.24-.1.48-.22.74-.36a7.6,7.6,0,0,0,.74-.44c.23-.15.45-.31.64-.46A2.81,2.81,0,0,0,50,34.5a.66.66,0,0,0,.18-.34c0-.09-.06-.15-.19-.18a7.57,7.57,0,0,0-1.44.09,2.57,2.57,0,0,0-1,.36,2.26,2.26,0,0,0-.71.73,5,5,0,0,0-.51,1.17Z"/><path class="cls-3" d="M50.31,39.68a.65.65,0,0,1-.41-.4,1.18,1.18,0,0,1,0-.59,2.61,2.61,0,0,1,.3-.67,4.4,4.4,0,0,1,.47-.64,3.94,3.94,0,0,1,.52-.49,1,1,0,0,1,.45-.22,1.37,1.37,0,0,1,.76.07.72.72,0,0,1,.38.37.94.94,0,0,1,0,.56,2.38,2.38,0,0,1-.2.66,3.14,3.14,0,0,1-.42.63,2.7,2.7,0,0,1-.56.51,1.86,1.86,0,0,1-.65.28A1.26,1.26,0,0,1,50.31,39.68Zm-.09-.45c.05.17.13.26.27.28a.79.79,0,0,0,.47-.1,2.82,2.82,0,0,0,.57-.38,3.87,3.87,0,0,0,.54-.53,3.44,3.44,0,0,0,.41-.58,1.06,1.06,0,0,0,.15-.51.37.37,0,0,0-.21-.34,1.19,1.19,0,0,0-.69,0l-.28.25-.35.31c-.13.12-.25.24-.37.37a3.68,3.68,0,0,0-.31.41,1.62,1.62,0,0,0-.19.43A.9.9,0,0,0,50.22,39.23Z"/><path class="cls-3" d="M57.81,39.35a1.06,1.06,0,0,1,0-.25,1,1,0,0,1,.08-.25,1.6,1.6,0,0,1,.1-.23l.12-.28.22-.43c.07-.16.14-.3.21-.43s.11-.23.14-.28V37c-.05,0-.16,0-.32.11a5.34,5.34,0,0,0-.56.39c-.22.17-.44.36-.68.57l-.68.6-.55.51-.29.29c-.12,0-.19,0-.23-.08a.75.75,0,0,1,0-.35,2.71,2.71,0,0,1,.09-.52c0-.19.09-.37.14-.54s.1-.31.14-.43a1,1,0,0,0,0-.2.43.43,0,0,0-.33,0,1.43,1.43,0,0,0-.35.28,3.26,3.26,0,0,0-.36.43l-.36.49-.35.47a1.92,1.92,0,0,1-.31.36.59.59,0,0,1-.27.17.24.24,0,0,1-.23-.12s0,0,0,0a.43.43,0,0,1,0-.05,2.6,2.6,0,0,0,.12-.24l.19-.38c.06-.14.14-.29.22-.44s.15-.3.22-.44l.19-.37a2.6,2.6,0,0,1,.12-.24l.11-.2c.05-.08.1-.16.14-.24l.18-.28h.19a.49.49,0,0,1,0,.34,3.07,3.07,0,0,1-.17.31,1.69,1.69,0,0,0-.17.29.42.42,0,0,0,0,.31c.45-.4.79-.69,1-.88a1.86,1.86,0,0,1,.51-.32c.1,0,.14,0,.14.12a3.6,3.6,0,0,1-.07.42c0,.18-.08.38-.12.61a2.43,2.43,0,0,0,0,.66h.1l.15-.12.24-.19.24-.19.16-.11.25-.2.34-.25.3-.23L58,37l.13-.1.24-.16.24-.16a1.27,1.27,0,0,0,.17-.11.35.35,0,0,1,.22-.07.24.24,0,0,1,.17.07.3.3,0,0,1,.08.18.61.61,0,0,1,0,.26l-.37.68c-.12.23-.23.45-.33.68a3.66,3.66,0,0,0-.25.7,2.68,2.68,0,0,0-.11.76.06.06,0,0,1-.08,0A.16.16,0,0,1,58,39.7a.44.44,0,0,1-.1-.12A.37.37,0,0,1,57.81,39.35Z"/><path class="cls-3" d="M60.16,39.68a.69.69,0,0,1-.35-.24.78.78,0,0,1-.16-.36,1.36,1.36,0,0,1,0-.41,3,3,0,0,1,.09-.41c.16-.16.34-.35.53-.57s.4-.43.62-.64.45-.4.69-.58a2.9,2.9,0,0,1,.72-.41.2.2,0,0,1,.2,0,.29.29,0,0,1,.1.18,1.23,1.23,0,0,1,0,.29,1.73,1.73,0,0,1,0,.32,1.15,1.15,0,0,1-.06.28.38.38,0,0,1-.08.17,1.39,1.39,0,0,1-.36.26l-.6.32c-.22.12-.44.24-.65.37a3.15,3.15,0,0,0-.54.37A.66.66,0,0,0,60,39c0,.12,0,.23.22.33a2.42,2.42,0,0,0,.64,0l.77-.15.77-.21.6-.17.09.09a1.43,1.43,0,0,1-.56.41,4.27,4.27,0,0,1-.85.31,4.67,4.67,0,0,1-.88.16A1.76,1.76,0,0,1,60.16,39.68Zm1.87-3-.12.07-.27.2-.34.26-.34.27-.25.22-.09.09a.84.84,0,0,0,.33,0,2,2,0,0,0,.41-.17,3.38,3.38,0,0,0,.41-.24,1.71,1.71,0,0,0,.31-.27.45.45,0,0,0,.12-.24C62.2,36.78,62.14,36.73,62,36.69Z"/><path class="cls-4" d="M8.08,32.75s0,.09,0,.25"/><path class="cls-5" d="M8.42,35.93c1.19,7,6.62,23,31.29,23,25,0,33.09,8.45,35.39,12"/><path class="cls-4" d="M75.82,72.18c.07.15.1.23.1.23"/></svg>