<svg xmlns="http://www.w3.org/2000/svg" viewBox="0 0 500 100"><defs><style>.cls-1{fill:#29418a;}.cls-2{fill:#f2f2f2;}</style></defs><title>c-exh-2</title><g id="EXHIBIT"><g id="Livello_11" data-name="Livello 11"><polygon class="cls-1" points="500 100 69.69 100 0 50 69.69 0 500 0 500 100"/><circle class="cls-2" cx="199.78" cy="24.42" r="6.08"/><path class="cls-2" d="M185.54,51.44a51,51,0,0,0,9.69-7.26c0,3.79-.09,7.57-.43,11.37a17.28,17.28,0,0,1-.45,2.19q-3.09,9.24-6.19,18.49c-1.38,4.11,5,6.24,6.37,2.13l5.67-16.91h.46a95.82,95.82,0,0,1,6.82,17.81,3.33,3.33,0,0,0,3,2.39,3.25,3.25,0,0,0,1.19-.13,3.33,3.33,0,0,0,2.26-4.14A101.39,101.39,0,0,0,206.38,58a5.15,5.15,0,0,1-.59-2.55c.08-2.68.25-8.64.2-11.94a53.75,53.75,0,0,1,3.56,4.69,3.17,3.17,0,0,0,2.64,1.41,3.18,3.18,0,0,0,2.64-5,66.65,66.65,0,0,0-9-10.58c-2.33-2.8-8.08-3-10.25.09a42.21,42.21,0,0,1-12.57,11.42C179.53,47.58,182,53.51,185.54,51.44Z"/><circle class="cls-2" cx="155.91" cy="24.37" r="6.08"/><path class="cls-2" d="M141.67,51.38a50.63,50.63,0,0,0,9.7-7.26c0,3.79-.09,7.58-.43,11.38a17.28,17.28,0,0,1-.45,2.19q-3.09,9.24-6.2,18.48c-1.38,4.11,5,6.25,6.38,2.14l5.67-16.92h.45a95.49,95.49,0,0,1,6.82,17.82,3.35,3.35,0,0,0,2.95,2.39A3.35,3.35,0,0,0,170,77.33a102.06,102.06,0,0,0-7.5-19.43,5.05,5.05,0,0,1-.59-2.56c.08-2.67.24-8.63.19-11.94a53.86,53.86,0,0,1,3.56,4.7A3.18,3.18,0,0,0,171,44.56,66.56,66.56,0,0,0,162,34c-2.34-2.8-8.08-3-10.25.09a42.13,42.13,0,0,1-12.58,11.42C135.67,47.53,138.11,53.45,141.67,51.38Z"/><circle class="cls-2" cx="112.58" cy="24.37" r="6.08"/><path class="cls-2" d="M98.34,51.38A50.56,50.56,0,0,0,108,44.12a111.1,111.1,0,0,1-.43,11.38,17.28,17.28,0,0,1-.45,2.19q-3.09,9.24-6.19,18.48c-1.38,4.11,5,6.25,6.37,2.14L113,61.39h.46a95.49,95.49,0,0,1,6.82,17.82,3.34,3.34,0,0,0,6.41-1.88,101.41,101.41,0,0,0-7.51-19.43,5.27,5.27,0,0,1-.59-2.56c.09-2.67.25-8.63.2-11.94a53.86,53.86,0,0,1,3.56,4.7A3.18,3.18,0,0,0,125,49.51a3.22,3.22,0,0,0,1.77-.54,3.18,3.18,0,0,0,.87-4.41,66.12,66.12,0,0,0-9-10.58c-2.33-2.8-8.08-3-10.25.09A42.09,42.09,0,0,1,95.85,45.49C92.33,47.53,94.78,53.45,98.34,51.38Z"/></g></g></svg>