<svg xmlns="http://www.w3.org/2000/svg" viewBox="0 0 500 100"><defs><style>.cls-1{fill:#29418a;}.cls-2{fill:#f2f2f2;}</style></defs><title>c-exh-3</title><g id="EXHIBIT"><g id="Livello_12" data-name="Livello 12"><polygon class="cls-1" points="500 100 69.69 100 0 50 69.69 0 500 0 500 100"/><circle class="cls-2" cx="355.29" cy="24.42" r="6.08"/><path class="cls-2" d="M372,45.54a42.13,42.13,0,0,1-12.58-11.42c-2.17-3-7.91-2.89-10.25-.09a66.56,66.56,0,0,0-8.95,10.58,3.18,3.18,0,1,0,5.28,3.54,55.65,55.65,0,0,1,3.55-4.69c-.05,3.3.12,9.26.2,11.94a5,5,0,0,1-.59,2.55,102.06,102.06,0,0,0-7.5,19.43,3.33,3.33,0,0,0,2.26,4.14,3.28,3.28,0,0,0,1.2.13,3.35,3.35,0,0,0,2.95-2.39,95.12,95.12,0,0,1,6.82-17.81h.45l5.67,16.91c1.38,4.11,7.75,2,6.38-2.13q-3.11-9.26-6.2-18.49a17.28,17.28,0,0,1-.45-2.19c-.34-3.8-.46-7.58-.43-11.37a50.74,50.74,0,0,0,9.7,7.26C373.09,53.51,375.53,47.58,372,45.54Z"/><circle class="cls-2" cx="399.15" cy="24.37" r="6.08"/><path class="cls-2" d="M415.88,45.49a42.09,42.09,0,0,1-12.57-11.42c-2.18-3.05-7.92-2.89-10.25-.09a66.12,66.12,0,0,0-9,10.58,3.18,3.18,0,1,0,5.28,3.54,53.86,53.86,0,0,1,3.56-4.7c-.05,3.31.11,9.27.2,11.94a5.27,5.27,0,0,1-.59,2.56A101.41,101.41,0,0,0,385,77.33a3.34,3.34,0,0,0,6.41,1.88,95.49,95.49,0,0,1,6.82-17.82h.45l5.68,16.92c1.37,4.11,7.75,2,6.37-2.14q-3.11-9.24-6.19-18.48a17.28,17.28,0,0,1-.45-2.19,111.1,111.1,0,0,1-.43-11.38,50.56,50.56,0,0,0,9.69,7.26C417,53.45,419.4,47.53,415.88,45.49Z"/><circle class="cls-2" cx="442.48" cy="24.37" r="6.08"/><path class="cls-2" d="M459.21,45.49a42.21,42.21,0,0,1-12.57-11.42c-2.17-3.05-7.92-2.89-10.25-.09a66.65,66.65,0,0,0-9,10.58,3.18,3.18,0,1,0,5.28,3.54,53.86,53.86,0,0,1,3.56-4.7c0,3.31.12,9.27.2,11.94a5.16,5.16,0,0,1-.59,2.56,101.39,101.39,0,0,0-7.5,19.43,3.33,3.33,0,0,0,2.26,4.14,3.25,3.25,0,0,0,1.19.13,3.33,3.33,0,0,0,2.95-2.39,96.19,96.19,0,0,1,6.82-17.82h.46l5.67,16.92c1.38,4.11,7.75,2,6.37-2.14l-6.19-18.48a17.28,17.28,0,0,1-.45-2.19c-.34-3.8-.47-7.59-.43-11.38a50.56,50.56,0,0,0,9.69,7.26C460.29,53.45,462.73,47.53,459.21,45.49Z"/><path class="cls-2" d="M119,30.92a8.12,8.12,0,0,1-5.9,2.67V78.74a2.86,2.86,0,1,1-5.72,0V57.05H106V78.74a2.86,2.86,0,1,1-5.72,0V34.62c-3.4,4-2.21,12.57-1.35,15.91a1.92,1.92,0,0,1-1.38,2.33,2,2,0,0,1-.48.06,1.91,1.91,0,0,1-1.85-1.43C95,50.82,91,35,99.92,30a2.17,2.17,0,0,1,1-.24c3.09,0,8.68.05,11.59.05A4.57,4.57,0,0,0,116,28.45a2.64,2.64,0,0,0,.54-2.26c-.43-2.53-3.7-2.63-4.56-2.61a5.37,5.37,0,1,1-5.37-5.29,5.4,5.4,0,0,1,4,1.77,1.79,1.79,0,0,1,.85-.28c2.68-.22,8,.72,8.84,5.76A6.47,6.47,0,0,1,119,30.92Z"/></g></g></svg>