<svg xmlns="http://www.w3.org/2000/svg" viewBox="0 0 500 100"><defs><style>.cls-1{fill:#29418a;}.cls-2{fill:#f2f2f2;}</style></defs><title>c-exh-1</title><g id="EXHIBIT"><g id="Livello_10" data-name="Livello 10"><polygon class="cls-1" points="500 100 69.69 100 0 50 69.69 0 500 0 500 100"/><circle class="cls-2" cx="217.36" cy="24.42" r="6.08"/><path class="cls-2" d="M234.09,45.54a42.13,42.13,0,0,1-12.58-11.42c-2.17-3-7.91-2.89-10.25-.09a66.56,66.56,0,0,0-8.95,10.58,3.18,3.18,0,1,0,5.28,3.54,53.75,53.75,0,0,1,3.56-4.69c-.06,3.3.11,9.26.19,11.94a5,5,0,0,1-.59,2.55,102.06,102.06,0,0,0-7.5,19.43,3.34,3.34,0,0,0,6.41,1.88,95.12,95.12,0,0,1,6.82-17.81h.45l5.67,16.91c1.38,4.11,7.76,2,6.38-2.13q-3.1-9.26-6.2-18.49a17.28,17.28,0,0,1-.45-2.19c-.34-3.8-.46-7.58-.43-11.37a51,51,0,0,0,9.7,7.26C235.16,53.51,237.6,47.58,234.09,45.54Z"/><circle class="cls-2" cx="260.87" cy="24.42" r="6.08"/><path class="cls-2" d="M277.6,45.54A42.09,42.09,0,0,1,265,34.12c-2.18-3-7.92-2.89-10.26-.09a66.56,66.56,0,0,0-9,10.58,3.18,3.18,0,1,0,5.28,3.54,53.75,53.75,0,0,1,3.56-4.69c0,3.3.11,9.26.2,11.94a5.26,5.26,0,0,1-.59,2.55,101.41,101.41,0,0,0-7.51,19.43,3.34,3.34,0,0,0,6.41,1.88A95.12,95.12,0,0,1,260,61.45h.45q2.83,8.44,5.68,16.91c1.37,4.11,7.75,2,6.37-2.13Q269.39,67,266.3,57.74a19.19,19.19,0,0,1-.46-2.19c-.34-3.8-.46-7.58-.42-11.37a51,51,0,0,0,9.69,7.26C278.67,53.51,281.12,47.58,277.6,45.54Z"/><circle class="cls-2" cx="304.38" cy="24.42" r="6.08"/><path class="cls-2" d="M321.11,45.54a42.21,42.21,0,0,1-12.57-11.42c-2.17-3-7.92-2.89-10.25-.09a66.65,66.65,0,0,0-9,10.58A3.18,3.18,0,0,0,290.2,49a3.22,3.22,0,0,0,1.77.54,3.18,3.18,0,0,0,2.64-1.41,53.75,53.75,0,0,1,3.56-4.69c-.05,3.3.12,9.26.2,11.94a5.15,5.15,0,0,1-.59,2.55,100.74,100.74,0,0,0-7.5,19.43,3.32,3.32,0,0,0,2.26,4.14,3.25,3.25,0,0,0,1.19.13,3.33,3.33,0,0,0,2.95-2.39,95.82,95.82,0,0,1,6.82-17.81H304l5.67,16.91c1.37,4.11,7.75,2,6.37-2.13Q312.9,67,309.81,57.74a17.28,17.28,0,0,1-.45-2.19c-.34-3.8-.47-7.58-.43-11.37a51,51,0,0,0,9.69,7.26C322.19,53.51,324.63,47.58,321.11,45.54Z"/><circle class="cls-2" cx="348.25" cy="24.37" r="6.08"/><path class="cls-2" d="M365,45.49A42.13,42.13,0,0,1,352.4,34.07c-2.17-3.05-7.91-2.89-10.25-.09a66.56,66.56,0,0,0-8.95,10.58,3.18,3.18,0,1,0,5.28,3.54A55.76,55.76,0,0,1,342,43.4c0,3.31.12,9.27.2,11.94a5.05,5.05,0,0,1-.59,2.56,102.06,102.06,0,0,0-7.5,19.43,3.33,3.33,0,0,0,2.26,4.14,3.28,3.28,0,0,0,1.2.13,3.35,3.35,0,0,0,2.95-2.39,95.49,95.49,0,0,1,6.82-17.82h.45l5.67,16.92c1.38,4.11,7.75,2,6.38-2.14q-3.11-9.24-6.2-18.48a17.28,17.28,0,0,1-.45-2.19c-.34-3.8-.46-7.59-.43-11.38a50.32,50.32,0,0,0,9.7,7.26C366.05,53.45,368.49,47.53,365,45.49Z"/><circle class="cls-2" cx="391.58" cy="24.37" r="6.08"/><path class="cls-2" d="M408.31,45.49a42,42,0,0,1-12.57-11.42c-2.18-3.05-7.92-2.89-10.26-.09a66.56,66.56,0,0,0-9,10.58,3.18,3.18,0,1,0,5.28,3.54,53.86,53.86,0,0,1,3.56-4.7c-.05,3.31.11,9.27.2,11.94A5.27,5.27,0,0,1,385,57.9a101.41,101.41,0,0,0-7.51,19.43,3.34,3.34,0,0,0,6.41,1.88,95.49,95.49,0,0,1,6.82-17.82h.45q2.84,8.46,5.68,16.92c1.37,4.11,7.75,2,6.37-2.14q-3.1-9.24-6.19-18.48a17.25,17.25,0,0,1-.46-2.19c-.34-3.8-.46-7.59-.42-11.38a50.25,50.25,0,0,0,9.69,7.26C409.38,53.45,411.83,47.53,408.31,45.49Z"/><circle class="cls-2" cx="449.49" cy="23.78" r="6.06"/><path class="cls-2" d="M443.23,46c1.18-1,2.38-2,3.56-3.09.11,4.82.52,9.24.54,9.52a6.51,6.51,0,0,0,.69,2.37,3.65,3.65,0,0,0-.14.76c-.63,7.18-1,14.41-2,21.56-.62,4.32,6,6.18,6.62,1.82,1-6.84,1.45-13.72,2-20.61a5.66,5.66,0,0,0,1.37-.29,93.67,93.67,0,0,1,3.52,20.3c.33,4.38,7.19,4.41,6.86,0-.7-9.14-2.07-18.87-5.64-27.36h0a3.31,3.31,0,0,0-.32-.59,102.35,102.35,0,0,1-.33-13.6v0a55.51,55.51,0,0,0,7.46-19.31c.82-4.32-5.79-6.17-6.61-1.83a51.39,51.39,0,0,1-5,14.54A6.81,6.81,0,0,0,454,29.7a6.55,6.55,0,0,0-6.31,3.46,3,3,0,0,0-1.86,1.08c-.07.08-.16.15-.23.23,0-3.52-5.65-4.73-6.74-.82-.81,2.93-.91,6-1.33,9C437,46,440.48,48.4,443.23,46Z"/></g></g></svg>