<svg xmlns="http://www.w3.org/2000/svg" viewBox="0 0 100 100"><defs><style>.cls-1{fill:#f2f2f2;}.cls-2,.cls-3{fill:#29418a;}.cls-3,.cls-4{stroke:#f2f2f2;stroke-linejoin:round;}.cls-4{fill:none;}</style></defs><title>c-ind</title><g id="INDUSTRIAL_DESIGN" data-name="INDUSTRIAL DESIGN"><g id="Livello_3" data-name="Livello 3"><g id="Livello_2" data-name="Livello 2"><circle class="cls-1" cx="50" cy="50" r="49.5"/><path class="cls-2" d="M50,1A49,49,0,1,1,1,50,49.05,49.05,0,0,1,50,1m0-1a50,50,0,1,0,50,50A50,50,0,0,0,50,0Z"/><path class="cls-2" d="M50,11.47A38.53,38.53,0,1,1,11.47,50,38.57,38.57,0,0,1,50,11.47m0-2A40.53,40.53,0,1,0,90.53,50,40.54,40.54,0,0,0,50,9.47Z"/></g><path class="cls-3" d="M74.58,38.09,70.9,41.77h0L40.46,72.21l-9.07-9.07L61.83,32.7h0L65.51,29h0l5-5c2.37-2.37,11.45,6.7,9.07,9.07l-5,5Z"/><path class="cls-3" d="M28,71.81l3.42-8.67,9.07,9.07L31.8,75.63h0l-5.53,2.18a.37.37,0,0,1-.47-.48L28,71.81Z"/><path class="cls-4" d="M70.9,41.77,61.83,32.7"/><path class="cls-4" d="M65.51,29l9.07,9.07"/><path class="cls-4" d="M28,71.81l3.83,3.82"/><path class="cls-1" d="M33.73,65.48,64.17,35l1.23,1.21L35,66.7Z"/><path class="cls-1" d="M36.9,68.65,67.34,38.21l1.22,1.22L38.12,69.87,36.9,68.65"/></g></g></svg>