<svg xmlns="http://www.w3.org/2000/svg" viewBox="0 0 100 100"><defs><style>.cls-1{fill:#f2f2f2;}.cls-2{fill:#ffd430;}.cls-3{fill:#29418a;}</style></defs><title>c-ux</title><g id="UX_UI" data-name="UX/UI"><path class="cls-1" d="M3.26,89.14H3.12L49.71,6A.55.55,0,0,1,50,5.89a.5.5,0,0,1,.3.08L96.88,89.13H3.26Z"/><path class="cls-2" d="M52.32,7.43h0M50,11.58,91.77,86.14H8.23L50,11.58m0-8.69A3.28,3.28,0,0,0,47.09,4.5L.35,87.94c-1.08,1.93.49,4.2,2.91,4.2H96.74c2.42,0,4-2.27,2.91-4.2L52.91,4.5A3.28,3.28,0,0,0,50,2.89Z"/><circle id="Oval" class="cls-3" cx="53.03" cy="41.22" r="3.66"/><path id="Shape" class="cls-3" d="M39.61,74a2.44,2.44,0,1,0,4.88.29l.75-10.81a1.23,1.23,0,0,1,2.14-.72L50.12,66a1.23,1.23,0,0,1,.3,1l-1.05,6.93a2.46,2.46,0,0,0,4.88.61c1.22-9,1.29-8.72,1.22-9.21,0-.76-.36-1.22-.24-1.22l6.1,2.31a26.29,26.29,0,0,0-3.09,7.54A1.18,1.18,0,0,0,58.46,75a1.21,1.21,0,0,0,1,.46h7.73a1.21,1.21,0,0,0,.85-.35l6.1-6.1a1.23,1.23,0,0,0,.36-.9,1.19,1.19,0,0,0-.42-.88l-6.76-5.85a1.22,1.22,0,0,0-1.55,0,17.1,17.1,0,0,0-3,2.91l-7.24-2.72-2-10.4L54,50a4,4,0,0,0-5.6-4.88l-8.22,2.35a2.45,2.45,0,0,0-1.42,3.66c2.31,3.77,3.26,5.52,3.38,5.6-1.9,4.19-1.69,5.15-2.51,17.3ZM50.78,58.3c.34-.92.11-.3,1.11-2.88l1,5.13L51.4,60l-.4-.49a1.23,1.23,0,0,1-.22-1.22ZM43.33,54l-1.22-2A1.24,1.24,0,0,1,42,50.86a1.26,1.26,0,0,1,.85-.74l2.65-.75c-.61,1.27-1.42,3-2.16,4.57Z"/></g></svg>