<svg xmlns="http://www.w3.org/2000/svg" viewBox="0 0 100 100"><defs><style>.cls-1{fill:#010101;}.cls-2{fill:#f2f2f2;}.cls-3{fill:#29418a;}</style></defs><title>c-vm-2</title><g id="VM"><g id="Livello_7" data-name="Livello 7"><rect class="cls-1" x="0.5" y="0.5" width="99" height="99" rx="3.5" ry="3.5"/><path class="cls-1" d="M96,1a3,3,0,0,1,3,3V96a3,3,0,0,1-3,3H4a3,3,0,0,1-3-3V4A3,3,0,0,1,4,1H96m0-1H4A4,4,0,0,0,0,4V96a4,4,0,0,0,4,4H96a4,4,0,0,0,4-4V4a4,4,0,0,0-4-4Z"/><rect class="cls-1" x="11.12" y="11.37" width="77.25" height="77.25"/><path class="cls-1" d="M87.37,12.37V87.63H12.12V12.37H87.37m2-2H10.12V89.63H89.37V10.37Z"/><path class="cls-1" d="M32.48,84a.7.7,0,0,1-.94.31,1.39,1.39,0,0,1-.19-.15.47.47,0,0,1-.08-.44l7.55-28.12H42.3Zm33.32-.28a.49.49,0,0,1-.09.44.69.69,0,0,1-1,0,.67.67,0,0,1-.14-.19l-9.84-28.4h.1c.35,0,.69,0,1-.05l.49,0,.46-.06c.23,0,.46-.09.7-.13l.11,0,.82-.2ZM58.86,52.47a.06.06,0,0,0,0,0,10.82,10.82,0,0,1-2.92.75h0c-.33,0-.67,0-1,.06H27.9a5.76,5.76,0,0,1,5.64-4.61H52.07A8.1,8.1,0,0,0,60,42.2l3.28-16.46A7.31,7.31,0,0,1,69,20L65.09,44.57A10.32,10.32,0,0,1,58.86,52.47Z"/><rect class="cls-2" x="0.5" y="0.5" width="99" height="99" rx="3.5" ry="3.5"/><path class="cls-3" d="M96,1a3,3,0,0,1,3,3V96a3,3,0,0,1-3,3H4a3,3,0,0,1-3-3V4A3,3,0,0,1,4,1H96m0-1H4A4,4,0,0,0,0,4V96a4,4,0,0,0,4,4H96a4,4,0,0,0,4-4V4a4,4,0,0,0-4-4Z"/><path class="cls-3" d="M87.37,12.37V87.63H12.12V12.37H87.37m2-2H10.12V89.63H89.37V10.37Z"/><path class="cls-3" d="M32.48,84a.7.7,0,0,1-.94.31,1.39,1.39,0,0,1-.19-.15.47.47,0,0,1-.08-.44l7.55-28.12H42.3Zm33.32-.28a.49.49,0,0,1-.09.44.69.69,0,0,1-1,0,.67.67,0,0,1-.14-.19l-9.84-28.4h.1c.35,0,.69,0,1-.05l.49,0,.46-.06c.23,0,.46-.09.7-.13l.11,0,.82-.2ZM58.86,52.47a.06.06,0,0,0,0,0,10.82,10.82,0,0,1-2.92.75h0c-.33,0-.67,0-1,.06H27.9a5.76,5.76,0,0,1,5.64-4.61H52.07A8.1,8.1,0,0,0,60,42.2l3.28-16.46A7.31,7.31,0,0,1,69,20L65.09,44.57A10.32,10.32,0,0,1,58.86,52.47Z"/></g></g></svg>