<svg xmlns="http://www.w3.org/2000/svg" viewBox="0 0 100 100"><defs><style>.cls-1{fill:#9a264e;}.cls-2{fill:#f2f2f2;}</style></defs><title>c-vm-1</title><g id="VM"><g id="Livello_8" data-name="Livello 8"><rect class="cls-1" width="100" height="100" rx="4" ry="4"/><path class="cls-2" d="M87.37,12.37V87.63H12.12V12.37H87.37m2-2H10.12V89.63H89.37V10.37Z"/><polygon class="cls-2" points="37.13 70.03 35.81 77.14 35.81 77.14 37.13 70.03 37.13 70.03"/><path class="cls-2" d="M33.12,47.33,34,48.69H65.47l.85-1.31a3.6,3.6,0,0,1,1-1L61.92,22.85A3.66,3.66,0,0,0,58.34,20H41.16a3.66,3.66,0,0,0-3.58,2.84L32.14,46.34A3.42,3.42,0,0,1,33.12,47.33Z"/><path class="cls-2" d="M70.8,48.93a1.54,1.54,0,0,0-.7-1,1.58,1.58,0,0,0-2.11.52L66.92,50.1a1.29,1.29,0,0,1-1.07.58H33.63a1.28,1.28,0,0,1-1.07-.58l-1.11-1.67a1.53,1.53,0,0,0-1-.67,1.54,1.54,0,0,0-1.53,2.4l1.26,1.91a3.72,3.72,0,0,0,3.1,1.67h32.9a3.7,3.7,0,0,0,3.1-1.67l1.29-2h0A1.54,1.54,0,0,0,70.8,48.93Z"/><path class="cls-2" d="M62.51,59.94,67,84.18h.4L65.28,55.73H34.22L33,72.14a.34.34,0,0,1,0,.1l-.9,11.94h.39L37,59.94a1.8,1.8,0,0,1,1.76-1.46h22A1.8,1.8,0,0,1,62.51,59.94Z"/><path class="cls-2" d="M63.2,73.36l-2-10.63-11.47,4-11.46-4-.34,1.86,9,3.11L36.7,71.24l-.4,2.12,13.44-4.67Zm-1.64-8.78,1.24,6.67L52.59,67.7Z"/></g></g></svg>