<svg id="Livello_18" data-name="Livello 18" xmlns="http://www.w3.org/2000/svg" viewBox="0 0 102.5 102.5"><defs><style>.cls-1{opacity:0.56;}.cls-2{fill:#fbf1cc;}.cls-3,.cls-7{fill:#eab900;}.cls-4{fill:none;}.cls-4,.cls-5{stroke:#20234a;stroke-linecap:round;stroke-linejoin:round;stroke-width:2px;}.cls-5{fill:#fff;}.cls-6{fill:#20234a;}.cls-7{opacity:0.42;}</style></defs><title>like-interior</title><g class="cls-1"><polygon class="cls-2" points="20.81 89.96 35.92 35.8 49.98 32.56 87.82 90.17 20.81 89.96"/><path class="cls-3" d="M49.81,33,87.12,89.79l-65.82-.2L36.22,36.11,49.81,33m.34-.85L35.62,35.48,20.32,90.34l68.19.2L50.15,32.13Z"/></g><line class="cls-4" x1="11.19" y1="90.54" x2="91.31" y2="90.54"/><line class="cls-5" x1="66.08" y1="64.72" x2="66.08" y2="54.97"/><line class="cls-5" x1="71.69" y1="59.05" x2="66.08" y2="64.72"/><line class="cls-5" x1="60.47" y1="59.05" x2="66.08" y2="64.72"/><path class="cls-6" d="M49.72,81l-2.2,8.73a.5.5,0,0,0,.48.62h.08a.49.49,0,0,0,.43-.26l4.78-8.73a.49.49,0,0,0-.44-.73H50.2A.5.5,0,0,0,49.72,81Z"/><path class="cls-6" d="M82.3,81l2.18,8.67a.52.52,0,0,1-.51.66h0a.52.52,0,0,1-.46-.28l-4.75-8.67a.52.52,0,0,1,.46-.77h2.58A.53.53,0,0,1,82.3,81Z"/><rect class="cls-4" x="51.25" y="40.67" width="29.66" height="25.53" rx="10.33" ry="10.33"/><path class="cls-4" d="M52.2,80.62H46.83a4.62,4.62,0,0,1-4.57-4.88V62.54a2.37,2.37,0,0,1,2.36-2.37h5.22a2.37,2.37,0,0,1,2.36,2.37Z"/><path class="cls-4" d="M80,80.62h5.38a4.61,4.61,0,0,0,4.56-4.88V62.54a2.37,2.37,0,0,0-2.36-2.37H82.32A2.37,2.37,0,0,0,80,62.54Z"/><rect class="cls-4" x="51.72" y="73.17" width="28.72" height="7.44"/><path class="cls-4" d="M66.08,73.17H51.72v-4s-.41-4.43,5.2-4.43H75.24c5.61,0,5.2,4.43,5.2,4.43v4H66.08"/><path class="cls-4" d="M21.47,85.48V19.88c0-10.56,18.67-10.56,18.67,0"/><path class="cls-6" d="M12.13,90.54c.88-2.41,1.89-4.67,4.29-5.27h10.1c2.4.6,3.41,2.86,4.29,5.27Z"/><path class="cls-5" d="M49.78,30.8l-6.27-4.26a1.28,1.28,0,0,0-.41-.19A3.8,3.8,0,0,0,43.36,24,3.13,3.13,0,0,0,40,21.28a3.12,3.12,0,0,0-2.08,3.84,3.68,3.68,0,0,0,1.11,2,1.57,1.57,0,0,0-.3.33l-4.17,6.34a1.06,1.06,0,0,0,1.1,1.63L42.5,34.1l6.89-1.36A1.07,1.07,0,0,0,49.78,30.8Z"/><path class="cls-7" d="M56,41.1A11.32,11.32,0,0,0,50.21,51l0,3.85c0,3.79.52,4.43.52,4.43a2.59,2.59,0,0,0-.92-.12l-5.22,0a3.43,3.43,0,0,0-3.4,3.4v13.2c0,5.88,5.61,5.88,5.61,5.88h2.73l-2,8h1.22l4.36-8H78.88l4.35,8h1.23l-2-8h.2Z"/></svg>