<svg id="Livello_18" data-name="Livello 18" xmlns="http://www.w3.org/2000/svg" viewBox="0 0 102.5 102.5"><defs><style>.cls-1,.cls-2{fill:#fff;stroke:#20234a;stroke-linecap:round;stroke-linejoin:round;stroke-width:2px;}.cls-2{stroke-dasharray:3 6;}.cls-3{fill:#eab900;}</style></defs><title>like-fashion</title><path class="cls-1" d="M77.51,88.57V46l4.41,4.41,16-16L77.39,13.93H63.47c-1.93,6.62-5.12,10.94-12.22,10.94C44.57,24.87,41,20.55,39,13.93H25.11L4.56,34.33l16,16L25,46V88.57Z"/><path class="cls-2" d="M25.11,13.93S26.6,25,26.6,30.18,25,46,25,46"/><path class="cls-2" d="M77.39,13.93S75.9,25,75.9,30.18,77.51,46,77.51,46"/><path class="cls-3" d="M34,40.65a12.31,12.31,0,0,1-2.56-.24,10.31,10.31,0,0,1-1.94-.62L30,37.11h.32a5.34,5.34,0,0,0,1.81,1.09,6.41,6.41,0,0,0,2.25.39,3.74,3.74,0,0,0,1.8-.33,1.05,1.05,0,0,0,.58-1,.84.84,0,0,0-.09-.4,1.12,1.12,0,0,0-.37-.33,3.8,3.8,0,0,0-.74-.33c-.31-.11-.71-.23-1.21-.37a12.45,12.45,0,0,1-1.46-.49,4.34,4.34,0,0,1-1.11-.62,2.41,2.41,0,0,1-.93-2,3.08,3.08,0,0,1,1.48-2.68,7.15,7.15,0,0,1,4.06-1,13.3,13.3,0,0,1,2.33.2,8.52,8.52,0,0,1,1.87.55l-.55,2.57h-.31a4.64,4.64,0,0,0-1.54-.9,5.88,5.88,0,0,0-2.09-.36,3.82,3.82,0,0,0-1.72.32,1,1,0,0,0-.6.89.78.78,0,0,0,.45.77,4.19,4.19,0,0,0,.76.33c.35.12.75.24,1.22.36A7.15,7.15,0,0,1,38.91,35a2.26,2.26,0,0,1,.81,1.83,3.26,3.26,0,0,1-.44,1.7,3.45,3.45,0,0,1-1.2,1.2,6,6,0,0,1-1.82.71A10.79,10.79,0,0,1,34,40.65Z"/><path class="cls-3" d="M48.82,40.45H40.76l2.58-11.17h2.89l-2.08,9h5.18Z"/><path class="cls-3" d="M62.91,33.44a8.16,8.16,0,0,1-.47,2.7,6.87,6.87,0,0,1-1.35,2.32,6.49,6.49,0,0,1-2.25,1.65,7.29,7.29,0,0,1-3,.57,5.13,5.13,0,0,1-3.59-1.18A4.19,4.19,0,0,1,51,36.25a7.81,7.81,0,0,1,.5-2.77,7.18,7.18,0,0,1,1.41-2.31,6.63,6.63,0,0,1,2.23-1.54,7.12,7.12,0,0,1,2.9-.58,5.13,5.13,0,0,1,3.59,1.18A4.14,4.14,0,0,1,62.91,33.44Zm-4.12,3.81a5.17,5.17,0,0,0,.8-1.55,6.63,6.63,0,0,0,.29-2,2.83,2.83,0,0,0-.57-1.88,2,2,0,0,0-1.64-.68,3,3,0,0,0-1.34.32,3.6,3.6,0,0,0-1.16,1A4.76,4.76,0,0,0,54.34,34,6.44,6.44,0,0,0,54,36,2.83,2.83,0,0,0,54.61,38a2.1,2.1,0,0,0,1.63.65,2.91,2.91,0,0,0,1.39-.36A3.46,3.46,0,0,0,58.79,37.25Z"/><path class="cls-3" d="M47.85,43.86,42.42,55H39.33l-.48-7.41L35.23,55H32L31.5,43.86h3l0,7.68,3.75-7.68h2.88l.34,7.68,3.41-7.68Z"/><path class="cls-3" d="M57.77,43.86,57.27,46H52.14l-.48,2.07h4.75l-.49,2.16H51.16L50.06,55H47.18l2.58-11.17Z"/><path class="cls-3" d="M67.61,55H64.7l-.25-2.29H60.36L59.05,55H56l6.7-11.17h3.33Zm-3.37-4.29-.46-4-2.29,4Z"/><path class="cls-3" d="M34,69.8a11.63,11.63,0,0,1-2.56-.25,10.33,10.33,0,0,1-1.94-.61L30,66.26h.32a5.34,5.34,0,0,0,1.81,1.09,6.41,6.41,0,0,0,2.25.39,3.74,3.74,0,0,0,1.8-.33,1.06,1.06,0,0,0,.58-1,.82.82,0,0,0-.09-.4,1.13,1.13,0,0,0-.37-.34,3.85,3.85,0,0,0-.74-.32c-.31-.11-.71-.23-1.21-.37a14.63,14.63,0,0,1-1.46-.49,4.66,4.66,0,0,1-1.11-.62,2.41,2.41,0,0,1-.93-2,3.08,3.08,0,0,1,1.48-2.68,7.15,7.15,0,0,1,4.06-1,13.3,13.3,0,0,1,2.33.2,8.52,8.52,0,0,1,1.87.55l-.55,2.57h-.31a4.64,4.64,0,0,0-1.54-.9,5.88,5.88,0,0,0-2.09-.36,3.82,3.82,0,0,0-1.72.32,1,1,0,0,0-.6.89.78.78,0,0,0,.45.77,4.19,4.19,0,0,0,.76.33c.35.11.75.24,1.22.36a7.15,7.15,0,0,1,2.67,1.18A2.26,2.26,0,0,1,39.72,66a3.29,3.29,0,0,1-.44,1.7,3.34,3.34,0,0,1-1.2,1.19,5.77,5.77,0,0,1-1.82.72A10.79,10.79,0,0,1,34,69.8Z"/><path class="cls-3" d="M53.36,58.43,50.79,69.6h-2.9L49,64.66H44.79L43.65,69.6H40.76l2.58-11.17h2.89l-.95,4.11h4.24l.95-4.11Z"/><path class="cls-3" d="M59.67,69.6H53.13l.46-2h1.82l1.67-7.21H55.25l.46-2h6.54l-.46,2H60L58.3,67.62h1.83Z"/><path class="cls-3" d="M42.21,77.16a8.08,8.08,0,0,1-.47,2.7,6.78,6.78,0,0,1-1.35,2.32,6.53,6.53,0,0,1-2.26,1.65,7.12,7.12,0,0,1-3,.58,5.15,5.15,0,0,1-3.58-1.18A4.21,4.21,0,0,1,30.29,80a7.71,7.71,0,0,1,.49-2.76A7,7,0,0,1,32.2,74.9a6.55,6.55,0,0,1,2.23-1.55,7.24,7.24,0,0,1,2.89-.58A5.12,5.12,0,0,1,40.91,74,4.11,4.11,0,0,1,42.21,77.16ZM38.09,81a5.28,5.28,0,0,0,.8-1.55,6.58,6.58,0,0,0,.29-2,2.85,2.85,0,0,0-.58-1.88A2,2,0,0,0,37,74.84a3,3,0,0,0-1.33.31,3.64,3.64,0,0,0-1.16,1,4.72,4.72,0,0,0-.84,1.54,6.51,6.51,0,0,0-.31,2.09,2.75,2.75,0,0,0,.59,1.93,2.05,2.05,0,0,0,1.63.65A2.9,2.9,0,0,0,36.93,82,3.61,3.61,0,0,0,38.09,81Z"/><path class="cls-3" d="M53.09,84.17H50.62l-3.28-7.73-1.78,7.73H42.9L45.48,73h3.23l2.81,6.47L53,73h2.66Z"/></svg>