<svg id="Livello_18" data-name="Livello 18" xmlns="http://www.w3.org/2000/svg" viewBox="0 0 102.5 102.5"><defs><style>.cls-1{fill:#fff;}.cls-1,.cls-2{stroke:#20234a;stroke-linecap:round;stroke-linejoin:round;stroke-width:2px;}.cls-2{fill:none;}.cls-3{fill:#eab900;}</style></defs><title>like-hike</title><path class="cls-1" d="M25.48,46.55C19.75,46.55,20,40.6,20,40.6V28.29H81V40.6s.21,5.95-5.52,5.95Z"/><path class="cls-2" d="M25.91,46.55v38c0,8.82,8.07,8.18,8.07,8.18H67s8.06.64,8.06-8.18v-38Z"/><path class="cls-1" d="M75.08,84.46h6c5.2,0,4.67-5.31,4.67-5.31v-19s.53-5.31-4.67-5.31h-6Z"/><path class="cls-1" d="M25.91,84.55H20c-5.2,0-4.67-5.3-4.67-5.3v-19s-.53-5.31,4.67-5.31h5.95Z"/><rect class="cls-2" x="41.73" y="20.11" width="17.54" height="8.17"/><rect class="cls-3" x="34.93" y="63.91" width="30.83" height="18.79" rx="1.96" ry="1.96"/><path class="cls-3" d="M59.51,29.31V51.44c0,1.8.76,4.09,4.8,4.09s4.8-2.29,4.8-4.09V29.31Z"/><path class="cls-3" d="M31.59,29.31V51.44c0,1.8.76,4.09,4.8,4.09s4.8-2.29,4.8-4.09V29.31Z"/><line class="cls-1" x1="70.89" y1="9.76" x2="65.04" y2="27.36"/><polygon class="cls-1" points="67.61 19.63 83.99 24.64 87.22 15.19 70.89 9.76 67.61 19.63"/><path class="cls-3" d="M72.87,18.15l.93-1.68a2.45,2.45,0,0,0,.15-.32.33.33,0,0,0-.23-.47.78.78,0,0,0-.67.16,2.37,2.37,0,0,0-.66.8l-.64,1.17-.63-.2,2.15-3.88.63.19-.36.66-.44.72-.11.18h0a1.81,1.81,0,0,1,.57-.27,1,1,0,0,1,.52,0,.77.77,0,0,1,.49.37.85.85,0,0,1,0,.65,2.15,2.15,0,0,1-.2.45l-.91,1.63Z"/><path class="cls-3" d="M75,18.79l-.63-.19,1.53-2.76.63.19Zm1.25-3.64a.43.43,0,0,1,.19-.26.41.41,0,0,1,.33,0A.46.46,0,0,1,77,15a.28.28,0,0,1,0,.24.44.44,0,0,1-.2.27.37.37,0,0,1-.31,0,.38.38,0,0,1-.22-.14A.3.3,0,0,1,76.23,15.15Z"/><path class="cls-3" d="M79,16.8l.73.22-1.69.9.27,1.89-.7-.21-.17-1.43-.44.15-.51.93-.63-.19L78,15.18l.63.19-1,1.82c-.1.17-.22.35-.35.55h0Z"/><path class="cls-3" d="M80,20.38a1.08,1.08,0,0,1-.77-1.47,2.35,2.35,0,0,1,.5-.92,1.73,1.73,0,0,1,.78-.53,1.44,1.44,0,0,1,.87,0,1.11,1.11,0,0,1,.61.4.7.7,0,0,1,.07.62.89.89,0,0,1-.68.63A2.55,2.55,0,0,1,80,19l-.11,0,0,.08,0,.08a.69.69,0,0,0,0,.51.61.61,0,0,0,.4.3,1.76,1.76,0,0,0,.4.07,3.41,3.41,0,0,0,.5,0l-.16.5a1.85,1.85,0,0,1-.52,0A2.32,2.32,0,0,1,80,20.38Zm1.19-2.46a.7.7,0,0,0-.55.09,1.28,1.28,0,0,0-.51.5l.08,0a1.83,1.83,0,0,0,.83.09.45.45,0,0,0,.4-.31.28.28,0,0,0,0-.24A.38.38,0,0,0,81.15,17.92Z"/></svg>