<svg id="Livello_18" data-name="Livello 18" xmlns="http://www.w3.org/2000/svg" viewBox="0 0 102.5 102.5"><defs><style>.cls-1{fill:none;}.cls-2{fill:#fff;}.cls-3{fill:#20234a;}.cls-4{fill:#f3f3d6;}.cls-5{fill:#736673;}.cls-6{fill:#eab900;}</style></defs><title>like-magritte</title><path class="cls-1" d="M26.83,20.8V81.7H76.66V20.8Zm18.71,23h0Zm0,0Zm0,0h0Zm0,0h0Zm0,0h0Zm0,0h0Zm0,0h0Zm.08,0Zm0,0Zm.09,0Zm0,0Zm0,0Z"/><path class="cls-2" d="M40.7,61.32a5.39,5.39,0,0,1,0-10.77,1,1,0,0,1,.91.57l2.12,4.45a1,1,0,0,1,0,.87L41.6,60.76A1,1,0,0,1,40.7,61.32Z"/><path class="cls-3" d="M40.7,51.55,42.83,56,40.7,60.32a4.39,4.39,0,0,1,0-8.77m0-2a6.39,6.39,0,0,0,0,12.77,2,2,0,0,0,1.8-1.11l2.12-4.32a2,2,0,0,0,0-1.75l-2.12-4.45a2,2,0,0,0-1.81-1.14Z"/><path class="cls-2" d="M61.8,61.32a1,1,0,0,1-.71-.3l-4.46-4.56a1,1,0,0,1-.29-.72,1,1,0,0,1,.31-.7l4.47-4.22a1,1,0,0,1,.68-.27,5.39,5.39,0,1,1,0,10.77Z"/><path class="cls-3" d="M61.8,51.55a4.39,4.39,0,1,1,0,8.77l-4.46-4.56,4.46-4.21m0-2a2,2,0,0,0-1.37.55L56,54.31a2,2,0,0,0-.63,1.41,2,2,0,0,0,.57,1.44l4.47,4.56a2,2,0,0,0,1.42.6,6.39,6.39,0,1,0,0-12.77Z"/><path class="cls-2" d="M26,87.88a1,1,0,0,1-.84-.46l-3.95-6.14a1,1,0,0,1,.27-1.36L42.9,65.11a1,1,0,0,1,.57-.18.93.93,0,0,1,.46.12,1,1,0,0,1,.54.88c0,3.18,3.51,4.7,6.78,4.76h.24c3.38,0,7-1.49,7-4.76a1,1,0,0,1,.52-.87,1,1,0,0,1,.48-.13,1.09,1.09,0,0,1,.54.16l1.61,1L79.5,77.86a1,1,0,0,1,.44,1L79,87a1,1,0,0,1-1,.89Z"/><path class="cls-3" d="M43.47,65.93c0,3.76,3.84,5.68,7.76,5.76h.26c4,0,8-1.91,8-5.76l1.61,1L67,70.82,79,78.7,78,86.88H26l-3.95-6.14L37,70.44l4.86-3.36,1.66-1.15m0-2a2,2,0,0,0-1.14.36l-1.66,1.15-4.85,3.35L20.93,79.09a2,2,0,0,0-.54,2.73L24.34,88a2,2,0,0,0,1.68.92H78a2,2,0,0,0,2-1.78l.9-8.18A2,2,0,0,0,80,77l-12-7.88L62.2,65.31l-1.62-1a2,2,0,0,0-2-.07,2,2,0,0,0-1,1.75c0,3-3.92,3.76-6,3.76h-.22c-2.79,0-5.8-1.26-5.8-3.76a2,2,0,0,0-1.07-1.77,2,2,0,0,0-.93-.23Z"/><path class="cls-4" d="M43.52,64.94H59V80.32H43.52Z"/><path class="cls-5" d="M42.52,47.23v1.62H60V47.23Zm1.86.69c.36,0,.71-.06,1-.11C45.09,47.86,44.74,47.9,44.38,47.92Z"/><path class="cls-2" d="M43.38,72.06H59.11v16.1H43.38Z"/><path class="cls-2" d="M41.13,51.17a1,1,0,0,1-1-1V39.33a9,9,0,0,1,9-9h4.23a9,9,0,0,1,9,9V50.17a1,1,0,0,1-1,1Z"/><path class="cls-3" d="M53.37,31.33a8,8,0,0,1,8,8V50.17H41.13V39.33a8,8,0,0,1,8-8h4.23m0-2H49.14a10,10,0,0,0-10,10V50.17a2,2,0,0,0,2,2H61.38a2,2,0,0,0,2-2V39.33a10,10,0,0,0-10-10Z"/><path class="cls-3" d="M54.57,84l-2.4,2.85H50.64l-2.72-3,2.32-6.41h2.14Z"/><path class="cls-3" d="M53.8,76.24l-.89,1.55a.78.78,0,0,1-.68.4h-1.8a.78.78,0,0,1-.68-.4l-.89-1.55a.78.78,0,0,1,0-.78l.89-1.56a.79.79,0,0,1,.68-.39h1.8a.79.79,0,0,1,.68.39l.89,1.56A.78.78,0,0,1,53.8,76.24Z"/><path class="cls-2" d="M52,87.88a1,1,0,0,1-.92-.61,1,1,0,0,1,.2-1.08l2-2.12,6.56-16.93a1,1,0,0,1,.63-.59.79.79,0,0,1,.3,0,1,1,0,0,1,.55.16l5.62,3.69a1,1,0,0,1,.44.71l.81,6.1A2.32,2.32,0,0,1,67.61,79a2.37,2.37,0,0,1-1.75.82l-1.22,0a.17.17,0,0,0-.16.09.2.2,0,0,0,0,.19L66,83.64a2.35,2.35,0,0,1-.2,2.21.94.94,0,0,1-.39.35l-3.16,1.58a1.14,1.14,0,0,1-.45.1Z"/><path class="cls-3" d="M60.74,67.5l5.62,3.69.81,6.1a1.36,1.36,0,0,1-1.32,1.53l-1.23,0a1.2,1.2,0,0,0-1.08,1.67L65.05,84a1.41,1.41,0,0,1-.11,1.28l-3.17,1.57H52l2.16-2.26,2.34-6.06L60.74,67.5m0-2a2.15,2.15,0,0,0-.61.09,2,2,0,0,0-1.25,1.19L54.59,77.84l-2.21,5.69-1.88,2A2,2,0,0,0,52,88.88h9.82a1.94,1.94,0,0,0,.89-.21l3.17-1.57a2,2,0,0,0,.78-.7,3.36,3.36,0,0,0,.28-3.15l-1-2.43h0A3.34,3.34,0,0,0,69.15,77l-.8-6.1a2,2,0,0,0-.89-1.41l-5.62-3.69a2,2,0,0,0-1.1-.33Z"/><path class="cls-2" d="M40.67,87.88a1.13,1.13,0,0,1-.44-.1L37.06,86.2a1,1,0,0,1-.39-.35,2.35,2.35,0,0,1-.19-2.21L38,80.12a.2.2,0,0,0,0-.19.18.18,0,0,0-.16-.09l-1.23,0a2.36,2.36,0,0,1-2.29-2.66l.8-6.1a1,1,0,0,1,.44-.71l5.62-3.69a1,1,0,0,1,.55-.16.81.81,0,0,1,.31,0,1,1,0,0,1,.63.59L49.2,84.07l2,2.12a1,1,0,0,1-.72,1.69Z"/><path class="cls-3" d="M41.7,67.5,46,78.56l2.35,6.06,2.16,2.26H40.67l-3.16-1.57A1.35,1.35,0,0,1,37.4,84l1.51-3.52a1.2,1.2,0,0,0-1.08-1.67l-1.23,0a1.35,1.35,0,0,1-1.32-1.53l.8-6.1L41.7,67.5m0-2a2,2,0,0,0-1.09.33L35,69.52a2,2,0,0,0-.88,1.41L33.3,77a3.34,3.34,0,0,0,3.27,3.79h0l-1,2.43a3.36,3.36,0,0,0,.27,3.15,2.13,2.13,0,0,0,.79.7l3.16,1.57a2,2,0,0,0,.89.21H50.5a2,2,0,0,0,1.44-3.38l-1.88-2-2.2-5.69L43.57,66.78a2,2,0,0,0-1.26-1.19,2.1,2.1,0,0,0-.61-.09Z"/><path class="cls-2" d="M51.25,72.58a11.27,11.27,0,0,1-11.12-11.4V48.85a1,1,0,0,1,1-1H61.38a1,1,0,0,1,1,1V61.18A11.28,11.28,0,0,1,51.25,72.58Z"/><path class="cls-3" d="M61.38,48.85V61.18a10.13,10.13,0,1,1-20.25,0V48.85H61.38m0-2H41.13a2,2,0,0,0-2,2V61.18a12.13,12.13,0,1,0,24.25,0V48.85a2,2,0,0,0-2-2Z"/><path class="cls-3" d="M67.36,50.59H35.15a1.79,1.79,0,0,1,0-3.46H67.36a1.79,1.79,0,0,1,0,3.46Z"/><path class="cls-6" d="M52.71,43.32l-.15.09a15.4,15.4,0,0,1-2.88,1.35,12.94,12.94,0,0,1-4.81.8,8.64,8.64,0,0,1-1-.09,13.88,13.88,0,0,1-7.37-3.93.6.6,0,0,1,.13-.95,14.76,14.76,0,0,1,6.74-1.85,11.56,11.56,0,0,1,1.43.09C49.42,39.48,52.71,43.32,52.71,43.32Z"/><path class="cls-6" d="M51.11,55.5a1.07,1.07,0,0,1-.39-.07,1.54,1.54,0,0,1-.82-1.87c1.85-6.75.55-9,.54-9.06l-.08-.18a1.61,1.61,0,0,1,.41-1.81,1.18,1.18,0,0,1,1.91.71c.6,2,1.14,5.8-.36,11.25A1.3,1.3,0,0,1,51.11,55.5Z"/><path class="cls-6" d="M58.27,59c0,.24,0,.48,0,.71a7,7,0,0,1-13.92.37A6.38,6.38,0,0,1,44.23,59a7,7,0,0,1,7-7l.63,0a7,7,0,0,1,6.39,7Z"/><path class="cls-2" d="M60.72,89.67a1.09,1.09,0,0,1-.26,0l-9.2-2.51-9.2,2.51-.26,0a1.24,1.24,0,0,1-.27,0l-9.24-2.52L22,89.16l-.19,0a1,1,0,0,1-.7-.29,1,1,0,0,1-.29-.89l2.27-12.64L20.59,63.51a1,1,0,0,1,0-.42l2.54-11.83L20.59,39.43a1,1,0,0,1,0-.42l2.54-11.86L20.86,14.5a1,1,0,0,1,.29-.89,1,1,0,0,1,.7-.29l.19,0,10.24,2,9.24-2.52a1.14,1.14,0,0,1,.52,0l9.2,2.51,9.2-2.51.26,0,.27,0,9.24,2.52,10.25-2,.19,0a1,1,0,0,1,.7.29,1,1,0,0,1,.29.89L79.37,27.14,81.91,39a1,1,0,0,1,0,.42L79.37,51.24l2.54,11.83a1,1,0,0,1,0,.42L79.37,75.4,81.64,88a1,1,0,0,1-.29.89,1,1,0,0,1-.7.29l-.19,0-10.24-2L61,89.64A1.09,1.09,0,0,1,60.72,89.67Zm14.42-8.61V21.44H27.36V81.06Z"/><path class="cls-3" d="M60.7,13.83l9.47,2.58,10.48-2.09-2.3,12.84,2.58,12-2.58,12,2.58,12-2.58,12.1,2.3,12.8L70.18,86.09l-9.46,2.58-9.46-2.58L41.8,88.67l-9.47-2.58L21.85,88.18l2.3-12.84-2.58-12,2.58-12-2.58-12,2.58-12-2.3-12.85,10.47,2.09,9.46-2.58,9.46,2.58,9.46-2.58M26.36,82.06H76.14V20.44H26.36V82.06M80.65,14.32h0m-20-2.49a1.86,1.86,0,0,0-.52.07l-8.94,2.44L42.31,11.9a2,2,0,0,0-1.06,0l-9,2.46-10-2a2.58,2.58,0,0,0-.39,0,2,2,0,0,0-1.4.58,2,2,0,0,0-.57,1.78l2.23,12.45L19.62,38.8a2,2,0,0,0,0,.84l2.49,11.62L19.62,62.88a2,2,0,0,0,0,.84l2.49,11.66L19.88,87.82a2,2,0,0,0,2,2.36,1.72,1.72,0,0,0,.39,0l10-2,9,2.46a1.88,1.88,0,0,0,.53.07,1.86,1.86,0,0,0,.52-.07l8.94-2.44,8.93,2.44a2,2,0,0,0,1.06,0l9-2.46,10,2a2.58,2.58,0,0,0,.39,0,2,2,0,0,0,1.41-.58,2,2,0,0,0,.56-1.78l-2.23-12.4L82.88,63.7a2,2,0,0,0,0-.84L80.39,51.24l2.49-11.62a2,2,0,0,0,0-.84L80.39,27.12,82.6,14.78a1.76,1.76,0,0,0,.06-.46,2,2,0,0,0-2-2h-.1a2,2,0,0,0-.35,0l-10,2-9-2.46a1.88,1.88,0,0,0-.53-.07ZM28.36,22.44H74.14V80.06H28.36V22.44Z"/></svg>