<svg id="Livello_4" data-name="Livello 4" xmlns="http://www.w3.org/2000/svg" viewBox="0 0 102.5 102.5"><defs><style>.cls-1{fill:#f2f2f2;}</style></defs><title>mailto-light</title><path class="cls-1" d="M17,24l39.24,31.7a1,1,0,0,0,1.29-.07L85.93,27c.59-.6.19-1.78-.63-1.65-10.91,1.72-56.17.1-67.61-3.13C16.79,22,16.32,23.39,17,24Z"/><path class="cls-1" d="M58.86,58.58a2.85,2.85,0,0,1-3.61,0L15.39,29.25a1,1,0,0,0-1.53.73C11.28,50,10,68.84,11,85.77a1,1,0,0,0,1.07,1,606.54,606.54,0,0,0,86.46-10.4,1,1,0,0,0,.83-1.18c-5.16-12.57-8.51-28-10.69-45.29A1,1,0,0,0,87,29.46Z"/></svg>