<svg xmlns="http://www.w3.org/2000/svg" viewBox="0 0 88.7 64.56"><defs><style>.cls-1{fill:#20234a;}</style></defs><title>Risorsa 2</title><g id="Livello_2" data-name="Livello 2"><g id="Livello_4" data-name="Livello 4"><path class="cls-1" d="M6.38,1.75l39.24,31.7a.94.94,0,0,0,1.29-.07L75.27,4.81c.59-.6.19-1.78-.63-1.65C63.73,4.88,18.47,3.26,7,0,6.13-.22,5.66,1.16,6.38,1.75Z"/><path class="cls-1" d="M48.2,36.35a2.85,2.85,0,0,1-3.61,0L4.73,7a1,1,0,0,0-1.53.73C.62,27.76-.63,46.61.32,63.54a1,1,0,0,0,1.07,1,606.54,606.54,0,0,0,86.46-10.4A1,1,0,0,0,88.68,53C83.52,40.4,80.17,25,78,7.68a1,1,0,0,0-1.63-.45Z"/></g></g></svg>