<svg id="Livello_4" data-name="Livello 4" xmlns="http://www.w3.org/2000/svg" viewBox="0 0 102.5 102.5"><defs><style>.cls-1{opacity:0.8;}.cls-2{fill:#ffd430;}</style></defs><title>photo-whatmore-ig-1-hover</title><g class="cls-1"><path class="cls-2" d="M66.84,41.07q-2.59,0-4,2.85c-.95,1.89-1.42,4.73-1.42,8.49s.46,6.69,1.4,8.55a4.37,4.37,0,0,0,4,2.79q2.55,0,4-3T72.21,52q0-5.76-1.37-8.33A4.34,4.34,0,0,0,66.84,41.07Z"/><path class="cls-2" d="M18.46,12A6.75,6.75,0,0,0,17.29,7.6a4.34,4.34,0,0,0-3.51-1.38,11,11,0,0,0-1.59.09l-.79.12V19a11,11,0,0,0,2.38.18Q18.46,19.14,18.46,12Z"/><path class="cls-2" d="M0,0V102.5H102.5V0ZM2.51,28.39,5.28,28v-21L2.62,6.54V4H8.49C8.87,4,9.61,4,10.72,4c1.39-.1,2.65-.14,3.78-.14a16.33,16.33,0,0,1,6.12.93,6.15,6.15,0,0,1,3.17,2.68,9.35,9.35,0,0,1,.93,4.41A9.18,9.18,0,0,1,21.91,19q-2.81,2.55-8,2.55a22.18,22.18,0,0,1-2.48-.1V28l4.75.39v2.38H2.51ZM21.39,96.88a7.32,7.32,0,0,1-3.26,3.06,12.8,12.8,0,0,1-6,1.23,19,19,0,0,1-3.66-.33c-1.11-.21-2.28-.5-3.51-.86a9.4,9.4,0,0,0-1.73-.4l.33-6.73H6.87l.9,4.61a3.31,3.31,0,0,0,1.45.83,8,8,0,0,0,2.54.36,4.85,4.85,0,0,0,3.3-1A3.35,3.35,0,0,0,16.15,95a3.22,3.22,0,0,0-.7-2.07,7,7,0,0,0-1.94-1.62,36.3,36.3,0,0,0-3.4-1.71A15.82,15.82,0,0,1,5.3,86.32a7.21,7.21,0,0,1-2-5.28,6.79,6.79,0,0,1,1-3.67,7.34,7.34,0,0,1,3.17-2.66,12.21,12.21,0,0,1,5.29-1,19.16,19.16,0,0,1,3.33.25c.95.17,2,.4,3,.68a6,6,0,0,0,1.34.33l-.22,6.41H17.05l-.82-4.43a2.34,2.34,0,0,0-1.14-.6,6.68,6.68,0,0,0-2-.27,4.2,4.2,0,0,0-3,.94,3.17,3.17,0,0,0-1,2.41A3.4,3.4,0,0,0,10,81.69a7.48,7.48,0,0,0,2,1.64c.78.44,2,1.06,3.58,1.85a30.88,30.88,0,0,1,3.33,1.89,8.8,8.8,0,0,1,2.43,2.47,6.23,6.23,0,0,1,1,3.53A8.1,8.1,0,0,1,21.39,96.88Zm3.66-37.5a11.76,11.76,0,0,1-4.38,5,12,12,0,0,1-6.57,1.79q-6,0-9-3.66T2.22,52.45A16.23,16.23,0,0,1,3.75,45.2a11.38,11.38,0,0,1,4.3-4.81,12.18,12.18,0,0,1,6.48-1.69q6.2,0,9.13,3.44T26.59,52A17,17,0,0,1,25.05,59.38Zm24.66-9.49-1.59-8-4.35-.18V63l5,.39v2.38H33V63.39L37.54,63V41.69l-4.5.18-1.51,8H28.14L28.72,39H52.44l.47,10.87ZM54.13,6.54,51.47,7V28l2.66.36v2.38H42.61V28.39l2.7-.39V18.67H35.45V28l2.95.36v2.38H26.67V28.39L29.33,28V7l-2.59-.47V4H38.4V6.54L35.45,7v8.6h9.86V7.05l-2.7-.51V4H54.13ZM77.46,59.38a11.73,11.73,0,0,1-4.37,5,12.07,12.07,0,0,1-6.57,1.79c-4,0-7-1.22-9-3.66s-2.91-5.79-2.91-10.06a16.23,16.23,0,0,1,1.53-7.25,11.31,11.31,0,0,1,4.3-4.81A12.18,12.18,0,0,1,67,38.7q6.19,0,9.13,3.44T79,52A17,17,0,0,1,77.46,59.38Z"/><path class="cls-2" d="M14.43,41.07q-2.6,0-4,2.85C9.46,45.81,9,48.65,9,52.41s.47,6.69,1.4,8.55a4.37,4.37,0,0,0,4,2.79q2.55,0,4-3T19.79,52q0-5.76-1.37-8.33A4.31,4.31,0,0,0,14.43,41.07Z"/></g></svg>