<svg id="Livello_4" data-name="Livello 4" xmlns="http://www.w3.org/2000/svg" viewBox="0 0 102.5 102.5"><defs><style>.cls-1{opacity:0.8;}.cls-2{fill:#ffd430;}</style></defs><title>photo-whatmore-proj-hover</title><g id="PROJECTS" class="cls-1"><path class="cls-2" d="M38.22,17.05a3.39,3.39,0,0,0,2.92-1.45,7.67,7.67,0,0,0,1-4.41,5.81,5.81,0,0,0-1-3.8,4.29,4.29,0,0,0-3.44-1.21,12.58,12.58,0,0,0-2.27.18V17a8.06,8.06,0,0,0,1.55.1Z"/><path class="cls-2" d="M18.46,12A6.75,6.75,0,0,0,17.29,7.6a4.34,4.34,0,0,0-3.51-1.38,11,11,0,0,0-1.59.09l-.79.12V19a11,11,0,0,0,2.38.18Q18.46,19.14,18.46,12Z"/><path class="cls-2" d="M0,0V102.5H102.5V0ZM26.52,28.39,29.29,28V7l-2.62-.5V4h5.54L33.7,4c.54,0,1-.05,1.25-.08,1.29-.09,2.4-.14,3.31-.14a20.46,20.46,0,0,1,6.12.74,6,6,0,0,1,3.29,2.3,7.38,7.38,0,0,1,1,4.12,8.59,8.59,0,0,1-1.3,4.58,6.62,6.62,0,0,1-3.81,2.91,5.82,5.82,0,0,1,2.79,2.29A32.39,32.39,0,0,1,48.73,25c.48,1,.87,1.76,1.16,2.25a1.53,1.53,0,0,0,.9.85l1,.32v2.38H45c-.36,0-.73-.38-1.12-1.15s-.87-2-1.47-3.6c-.75-2-1.39-3.54-1.93-4.63a3.73,3.73,0,0,0-1.78-2H35.45V28l3.2.36v2.38H26.52ZM16.73,41.54V39H36.42l.47,6.37H34.05l-1.26-3.63-7.1-.36v9.36l4.4-.11.64-2.95h2.49v9H30.73l-.61-3.13-4.43-.11v9.8l7.89-.51,2.19-4.64,3.06.86L38,65.77H16.77V63.39L19.54,63v-21ZM2.51,28.39,5.28,28v-21L2.62,6.54V4H8.49C8.87,4,9.61,4,10.72,4c1.39-.1,2.65-.14,3.78-.14a16.33,16.33,0,0,1,6.12.93,6.15,6.15,0,0,1,3.17,2.68,9.35,9.35,0,0,1,.93,4.41A9.18,9.18,0,0,1,21.91,19q-2.81,2.55-8,2.55a22.18,22.18,0,0,1-2.48-.1V28l4.75.39v2.38H2.51ZM3.19,69A7.49,7.49,0,0,0,5,66a15,15,0,0,0,.54-2.76,40.87,40.87,0,0,0,.18-4.34V42.05l-3.06-.51V39H14.75v2.52L11.91,42V55.87q0,3.68-.11,5.94a17.54,17.54,0,0,1-.43,3.46,9.71,9.71,0,0,1-3.24,4.89A12.67,12.67,0,0,1,2,72.75L.6,70.67A6.9,6.9,0,0,0,3.19,69Zm20.2,15.9-1.58-8-4.36-.18V98l5,.39v2.38H6.65V98.39L11.22,98V76.69l-4.5.18-1.51,8H1.83L2.4,74H26.13l.46,10.87Zm24.1,12a7.32,7.32,0,0,1-3.26,3.06,12.8,12.8,0,0,1-6,1.23,19,19,0,0,1-3.66-.33c-1.11-.21-2.28-.5-3.51-.86a9.4,9.4,0,0,0-1.73-.4l.33-6.73H33l.9,4.61a3.31,3.31,0,0,0,1.45.83,8,8,0,0,0,2.54.36,4.85,4.85,0,0,0,3.3-1A3.35,3.35,0,0,0,42.25,95a3.22,3.22,0,0,0-.7-2.07,7,7,0,0,0-1.94-1.62,36.3,36.3,0,0,0-3.4-1.71,15.82,15.82,0,0,1-4.81-3.29,7.21,7.21,0,0,1-2-5.28,6.79,6.79,0,0,1,1-3.67,7.34,7.34,0,0,1,3.17-2.66,12.21,12.21,0,0,1,5.29-1,19.16,19.16,0,0,1,3.33.25c.95.17,2,.4,3,.68a6,6,0,0,0,1.34.33l-.22,6.41H43.15l-.82-4.43a2.34,2.34,0,0,0-1.14-.6,6.68,6.68,0,0,0-2-.27,4.2,4.2,0,0,0-3,.94,3.17,3.17,0,0,0-1,2.41,3.4,3.4,0,0,0,.83,2.27,7.48,7.48,0,0,0,2,1.64c.78.44,2,1.06,3.58,1.85A30.88,30.88,0,0,1,45,87.07a8.8,8.8,0,0,1,2.43,2.47,6.23,6.23,0,0,1,1,3.53A8.1,8.1,0,0,1,47.49,96.88ZM61.26,64.8a11.7,11.7,0,0,0-2.55.54A27.83,27.83,0,0,1,56,66a19.79,19.79,0,0,1-3.15.22q-6.23,0-9.47-3.62t-3.24-9.92a15.18,15.18,0,0,1,1.73-7.4,11.86,11.86,0,0,1,4.75-4.82,13.87,13.87,0,0,1,6.84-1.68,25.06,25.06,0,0,1,2.92.17c.93.1,2.06.25,3.38.45,1,.16,1.74.26,2.12.28l-.43,8H57.59l-1.22-5.51c-.53-.57-1.64-.86-3.32-.86A4.9,4.9,0,0,0,48.68,44c-1.07,1.84-1.6,4.53-1.6,8.09a18.77,18.77,0,0,0,1.56,8.31q1.57,3.14,4.56,3.13a6.89,6.89,0,0,0,2.25-.28,3.76,3.76,0,0,0,1.31-.83l1.62-3.85,3.53.32ZM75.41,24.38a11.73,11.73,0,0,1-4.37,5,12.07,12.07,0,0,1-6.57,1.79c-4,0-7-1.22-9-3.66s-2.91-5.79-2.91-10.06a16.09,16.09,0,0,1,1.53-7.25,11.31,11.31,0,0,1,4.3-4.81A12.18,12.18,0,0,1,64.9,3.7C69,3.7,72.07,4.84,74,7.14S77,12.7,77,17A17,17,0,0,1,75.41,24.38Z"/><path class="cls-2" d="M64.79,6.07q-2.6,0-4,2.85c-1,1.89-1.43,4.73-1.43,8.49s.47,6.69,1.41,8.55a4.35,4.35,0,0,0,4,2.79c1.71,0,3-1,4-3s1.42-4.94,1.42-8.73-.45-6.62-1.36-8.33A4.34,4.34,0,0,0,64.79,6.07Z"/></g></svg>