<svg id="Livello_4" data-name="Livello 4" xmlns="http://www.w3.org/2000/svg" viewBox="0 0 102.5 102.5"><defs><style>.cls-1{opacity:0.7;}.cls-2{fill:#ffd430;}</style></defs><title>photo-whatmore-lk-hover</title><g id="WRITING" class="cls-1"><path class="cls-2" d="M.6,4H12.09V6.54l-3,.51,4.28,15.87.69,3.35.61-3.35,3.67-12.81-1-3.06L15,6.54V4h12V6.54l-3.42.51,4.29,15.87.79,3.64.61-3.64L33.18,7.05l-3.06-.51V4h8.75V6.54l-2.23.51L30,31H24.47l-4.64-16-4.4,16H10L2.69,7.05.6,6.54Z"/><path class="cls-2" d="M39.45,28.39,42.22,28V7l-2.63-.5V4h5.54l1.5,0c.54,0,.95-.05,1.24-.08,1.3-.09,2.4-.14,3.31-.14a20.46,20.46,0,0,1,6.12.74,6,6,0,0,1,3.3,2.3,7.46,7.46,0,0,1,1,4.12,8.67,8.67,0,0,1-1.29,4.58,6.68,6.68,0,0,1-3.82,2.91,5.82,5.82,0,0,1,2.79,2.29A32.32,32.32,0,0,1,61.66,25c.48,1,.86,1.76,1.15,2.25a1.58,1.58,0,0,0,.9.85l1,.32v2.38H57.91c-.36,0-.73-.38-1.11-1.15A37,37,0,0,1,55.32,26c-.74-2-1.38-3.54-1.92-4.63a3.74,3.74,0,0,0-1.79-2H48.37V28l3.21.36v2.38H39.45ZM54.06,15.6a7.59,7.59,0,0,0,1-4.41,5.81,5.81,0,0,0-1-3.8,4.27,4.27,0,0,0-3.44-1.21,12.66,12.66,0,0,0-2.27.18V17a8.12,8.12,0,0,0,1.55.1h1.23A3.37,3.37,0,0,0,54.06,15.6Z"/><path class="cls-2" d="M68.93,7.05l-3-.51V4H78.11V6.54l-3,.51V28l3,.4v2.34H66V28.39L68.93,28Z"/><path class="cls-2" d="M11.22,41.69l-4.5.18-1.51,8H1.83L2.4,39H26.13l.46,10.87h-3.2l-1.58-8-4.36-.18V63l5,.39v2.38H6.65V63.39L11.22,63Z"/><path class="cls-2" d="M31.74,42.05l-2.95-.51V39H40.92v2.52l-3,.51V63l3,.4v2.34H28.83V63.39L31.74,63Z"/><path class="cls-2" d="M5.32,77l-2.81-.47V74h9l9.93,15.34,2,4.32V77l-3.06-.47V74h9.21v2.52L26.92,77v23.76H21.63L11.08,84.32,8.7,79.57V98l3.82.39v2.38h-10V98.39L5.32,98Z"/><path class="cls-2" d="M37.14,99.4a11.21,11.21,0,0,1-4.35-4.82A17.51,17.51,0,0,1,33,80a11.16,11.16,0,0,1,4.84-4.73,16.27,16.27,0,0,1,7.47-1.6,34,34,0,0,1,4.94.36q2.45.36,4.14.75l-.44,7H49.63l-1-4.75a2.73,2.73,0,0,0-1.17-.63,7.83,7.83,0,0,0-2.29-.27,5.55,5.55,0,0,0-5,2.83q-1.76,2.82-1.76,8.19a19.89,19.89,0,0,0,1.49,8.44,4.91,4.91,0,0,0,4.66,3.11A7.6,7.6,0,0,0,47,98.34a4,4,0,0,0,1.6-.88V89.93l-3.34-.36V87H56.44v2.62l-1.8.29v9.47a21.94,21.94,0,0,0-2.85.58c-1.46.38-2.78.69-4,.91a19.58,19.58,0,0,1-3.78.35A13,13,0,0,1,37.14,99.4Z"/></g></svg>