<svg id="Livello_4" data-name="Livello 4" xmlns="http://www.w3.org/2000/svg" viewBox="0 0 102.5 102.5"><defs><style>.cls-1{opacity:0.8;}.cls-2{fill:#29418a;}</style></defs><title>photo-whatmore-ig-1-hover</title><g id="TRAVELING" class="cls-1"><polygon class="cls-2" points="65.76 10.18 65.22 7.66 64.64 10.21 61.73 20.94 68.86 20.94 65.76 10.18"/><path class="cls-2" d="M0,0V102.5H102.5V0ZM28.57,28.39,31.35,28V7l-2.63-.5V4h5.54l1.5,0c.54,0,1-.05,1.24-.08,1.29-.09,2.4-.14,3.31-.14a20.46,20.46,0,0,1,6.12.74,6,6,0,0,1,3.29,2.3,7.38,7.38,0,0,1,1,4.12,8.59,8.59,0,0,1-1.3,4.58,6.62,6.62,0,0,1-3.81,2.91,5.82,5.82,0,0,1,2.79,2.29A33.52,33.52,0,0,1,50.79,25c.48,1,.86,1.76,1.15,2.25a1.58,1.58,0,0,0,.9.85l.7.22L55.07,28l8-24.09h6.48L77.64,28l2,.36v2.38H68.28V28.39L70.84,28l-1.23-4.32H61l-1.22,4.36,2.8.32v2.38H47c-.36,0-.73-.38-1.11-1.15A37,37,0,0,1,44.45,26c-.74-2-1.39-3.54-1.93-4.63a3.73,3.73,0,0,0-1.78-2H37.5V28l3.21.36v2.38H28.57ZM27.53,39H47.22l.47,6.37H44.85l-1.26-3.63-7.1-.36v9.36l4.4-.11.64-2.95H44v9H41.53l-.61-3.13-4.43-.11v9.8l7.89-.51,2.19-4.64,3.06.86-.86,6.77H27.57V63.39L30.34,63v-21l-2.81-.51ZM2.4,4H26.13l.46,10.87h-3.2l-1.58-8-4.36-.18V28l5,.39v2.38H6.65V28.39L11.22,28V6.69l-4.5.18-1.51,8H1.83ZM.57,39H12.34v2.52L9.39,42l5,15.66.9,3.17L16,57.63,20.8,42.05,18,41.54V39h9.14v2.52l-2.34.51L16.66,66h-5l-9-24L.57,41.54ZM29.65,76.54,26.92,77v23.76H21.63L11.08,84.32,8.7,79.57V98l3.82.39v2.38h-10V98.39L5.32,98V77l-2.81-.47V74h9l9.93,15.34,2,4.32V77l-3.06-.47V74h9.21Zm26.79,13-1.8.29v9.47a21.94,21.94,0,0,0-2.85.58c-1.46.38-2.78.69-4,.91a19.58,19.58,0,0,1-3.78.35,13,13,0,0,1-6.91-1.77,11.21,11.21,0,0,1-4.35-4.82A17.51,17.51,0,0,1,33,80a11.16,11.16,0,0,1,4.84-4.73,16.27,16.27,0,0,1,7.47-1.6,34,34,0,0,1,4.94.36q2.45.36,4.14.75l-.44,7H49.63l-1-4.75a2.73,2.73,0,0,0-1.17-.63,7.83,7.83,0,0,0-2.29-.27,5.55,5.55,0,0,0-5,2.83q-1.76,2.82-1.76,8.19a19.89,19.89,0,0,0,1.49,8.44,4.91,4.91,0,0,0,4.66,3.11A7.6,7.6,0,0,0,47,98.34a4,4,0,0,0,1.6-.88V89.93l-3.34-.36V87H56.44Zm15.19-23.8H51.25V63.39L54,63v-21l-2.7-.51V39H63.6v2.52l-3.42.51V63L67,62.6l2.34-7.13,3.38.44Zm15-24.23-3,.51V63l3,.4v2.34H74.55V63.39L77.46,63v-21l-2.95-.51V39H86.64Z"/><path class="cls-2" d="M40.27,17.05a3.39,3.39,0,0,0,2.92-1.45,7.6,7.6,0,0,0,1-4.41,5.81,5.81,0,0,0-1-3.8,4.29,4.29,0,0,0-3.44-1.21,12.66,12.66,0,0,0-2.27.18V17a8.06,8.06,0,0,0,1.55.1Z"/></g></svg>