<svg id="Livello_4" data-name="Livello 4" xmlns="http://www.w3.org/2000/svg" viewBox="0 0 102.5 102.5"><defs><style>.cls-1{opacity:0.7;}.cls-2{fill:#29418a;}</style></defs><title>photo-whatmore-ig-2-hover</title><g id="INSIGHTS" class="cls-1"><path class="cls-2" d="M5.64,7.05,2.69,6.54V4H14.82V6.54l-3,.51V28l3,.4v2.34H2.73V28.39L5.64,28Z"/><path class="cls-2" d="M20.33,7l-2.81-.47V4h9l9.93,15.34,2,4.32V7l-3.06-.47V4h9.22V6.54L41.93,7V30.77H36.64L26.09,14.32,23.71,9.57V28l3.82.39v2.38h-10V28.39L20.33,28Z"/><path class="cls-2" d="M8.43,65.84c-1.11-.21-2.28-.5-3.51-.86a9.4,9.4,0,0,0-1.73-.4l.33-6.73H6.87l.9,4.61a3.31,3.31,0,0,0,1.45.83,8,8,0,0,0,2.54.36,4.85,4.85,0,0,0,3.3-1A3.35,3.35,0,0,0,16.15,60a3.22,3.22,0,0,0-.7-2.07,7,7,0,0,0-1.94-1.62,36.3,36.3,0,0,0-3.4-1.71A15.82,15.82,0,0,1,5.3,51.32a7.21,7.21,0,0,1-2-5.28,6.79,6.79,0,0,1,1-3.67,7.34,7.34,0,0,1,3.17-2.66,12.21,12.21,0,0,1,5.29-1,19.16,19.16,0,0,1,3.33.25c.95.17,2,.4,3,.68a6,6,0,0,0,1.34.33l-.22,6.41H17.05l-.82-4.43a2.34,2.34,0,0,0-1.14-.6,6.68,6.68,0,0,0-2-.27,4.2,4.2,0,0,0-3,.94,3.17,3.17,0,0,0-1,2.41A3.4,3.4,0,0,0,10,46.69a7.48,7.48,0,0,0,2,1.64c.78.44,2,1.06,3.58,1.85a30.88,30.88,0,0,1,3.33,1.89,8.8,8.8,0,0,1,2.43,2.47,6.23,6.23,0,0,1,1,3.53,8.1,8.1,0,0,1-1,3.81,7.32,7.32,0,0,1-3.26,3.06,12.8,12.8,0,0,1-6,1.23A19,19,0,0,1,8.43,65.84Z"/><path class="cls-2" d="M27.57,42.05l-3-.51V39H36.75v2.52l-3,.51V63l3,.4v2.34H24.65V63.39L27.57,63Z"/><path class="cls-2" d="M45.1,64.4a11.3,11.3,0,0,1-4.36-4.82,15.86,15.86,0,0,1-1.47-6.95A15.78,15.78,0,0,1,41,45,11.16,11.16,0,0,1,45.8,40.3a16.27,16.27,0,0,1,7.47-1.6,33.76,33.76,0,0,1,4.93.36q2.44.36,4.14.75l-.43,6.95H57.59l-1-4.75a2.61,2.61,0,0,0-1.17-.63,7.75,7.75,0,0,0-2.28-.27,5.53,5.53,0,0,0-5,2.83q-1.77,2.82-1.77,8.19a19.72,19.72,0,0,0,1.5,8.44,4.9,4.9,0,0,0,4.66,3.11,7.65,7.65,0,0,0,2.36-.34,4,4,0,0,0,1.6-.88V54.93l-3.35-.36V52H64.39v2.62l-1.8.29v9.47a22.27,22.27,0,0,0-2.84.58c-1.46.38-2.78.69-4,.91a19.74,19.74,0,0,1-3.78.35A12.93,12.93,0,0,1,45.1,64.4Z"/><path class="cls-2" d="M69.11,42l-2.59-.47V39H78.18v2.52l-3,.47v8.6h9.86V42.05l-2.7-.51V39H93.91v2.52L91.25,42V63l2.66.36v2.38H82.39V63.39l2.7-.39V53.67H75.23V63l3,.36v2.38H66.45V63.39L69.11,63Z"/><path class="cls-2" d="M11.22,76.69l-4.5.18-1.51,8H1.83L2.4,74H26.13l.46,10.87h-3.2l-1.58-8-4.36-.18V98l5,.39v2.38H6.65V98.39L11.22,98Z"/><path class="cls-2" d="M34.53,100.84c-1.11-.21-2.28-.5-3.51-.86a9.4,9.4,0,0,0-1.73-.4l.33-6.73H33l.9,4.61a3.31,3.31,0,0,0,1.45.83,8,8,0,0,0,2.54.36,4.85,4.85,0,0,0,3.3-1A3.35,3.35,0,0,0,42.25,95a3.22,3.22,0,0,0-.7-2.07,7,7,0,0,0-1.94-1.62,36.3,36.3,0,0,0-3.4-1.71,15.82,15.82,0,0,1-4.81-3.29,7.21,7.21,0,0,1-2-5.28,6.79,6.79,0,0,1,1-3.67,7.34,7.34,0,0,1,3.17-2.66,12.21,12.21,0,0,1,5.29-1,19.16,19.16,0,0,1,3.33.25c.95.17,2,.4,3,.68a6,6,0,0,0,1.34.33l-.22,6.41H43.15l-.82-4.43a2.34,2.34,0,0,0-1.14-.6,6.68,6.68,0,0,0-2-.27,4.2,4.2,0,0,0-3,.94,3.17,3.17,0,0,0-1,2.41,3.4,3.4,0,0,0,.83,2.27,7.48,7.48,0,0,0,2,1.64c.78.44,2,1.06,3.58,1.85A30.88,30.88,0,0,1,45,87.07a8.8,8.8,0,0,1,2.43,2.47,6.23,6.23,0,0,1,1,3.53,8.1,8.1,0,0,1-1,3.81,7.32,7.32,0,0,1-3.26,3.06,12.8,12.8,0,0,1-6,1.23A19,19,0,0,1,34.53,100.84Z"/></g></svg>