<svg id="Livello_4" data-name="Livello 4" xmlns="http://www.w3.org/2000/svg" viewBox="0 0 102.5 102.5"><defs><style>.cls-1{fill:#20234a;}</style></defs><title>social-ig</title><path class="cls-1" d="M-.92-.92v104.5h104.5V-.92Zm37.28,78.4H23.88V39.92H36.36ZM30.12,34.8H30c-4.19,0-6.9-2.89-6.9-6.49s2.79-6.49,7.06-6.49,6.9,2.8,7,6.49S34.47,34.8,30.12,34.8ZM81.36,77.48H68.88V57.39c0-5-1.8-8.5-6.32-8.5a6.83,6.83,0,0,0-6.4,4.57,8.54,8.54,0,0,0-.41,3v21H43.26s.17-34,0-37.56H55.75v5.32A12.37,12.37,0,0,1,67,39c8.22,0,14.37,5.37,14.37,16.9Z"/></svg>