<svg id="Livello_4" data-name="Livello 4" xmlns="http://www.w3.org/2000/svg" viewBox="0 0 102.5 102.5"><defs><style>.cls-1{fill:#20234a;}</style></defs><title>social-be</title><g id="Livello_3" data-name="Livello 3"><path class="cls-1" d="M39.37,54.1a11.45,11.45,0,0,0-4.51-.75H23.76V65.21h11a10.86,10.86,0,0,0,4.57-.78c2-1,3-2.82,3-5.56A4.75,4.75,0,0,0,39.37,54.1Z"/><path class="cls-1" d="M-.92-.92V103.42H103.42V-.92ZM61.4,30.52H80.72v5.54H61.4ZM49.74,66.6a12.1,12.1,0,0,1-3.19,3.49,12.54,12.54,0,0,1-5.09,2.24,31.84,31.84,0,0,1-6.37.6H14.77V28.45H36.56q8.25.12,11.69,4.74A11.25,11.25,0,0,1,50.31,40a9.84,9.84,0,0,1-2.08,6.55,10.85,10.85,0,0,1-3.44,2.53A10.15,10.15,0,0,1,50,53a11.64,11.64,0,0,1,1.75,6.51A12.88,12.88,0,0,1,49.74,66.6Zm38-7.7H63.43c.15,3.3,1.29,5.62,3.49,6.94a9,9,0,0,0,4.81,1.24,7.43,7.43,0,0,0,4.84-1.51,7.08,7.08,0,0,0,1.79-2.26h8.91a10.83,10.83,0,0,1-3.23,6Q79.55,74,71.49,74.05a18.29,18.29,0,0,1-11.74-4q-5.1-4-5.09-13.17,0-8.55,4.59-13.11a16.2,16.2,0,0,1,11.92-4.57A19.11,19.11,0,0,1,79,40.71a13.43,13.43,0,0,1,5.76,4.86,16,16,0,0,1,2.66,6.8A41.15,41.15,0,0,1,87.72,58.9Z"/><path class="cls-1" d="M39.49,44.88A4.17,4.17,0,0,0,41.32,41c0-2.08-.8-3.44-2.42-4.11a17.25,17.25,0,0,0-5.33-.7H23.76V46h11A9.15,9.15,0,0,0,39.49,44.88Z"/><path class="cls-1" d="M76.35,48a7.74,7.74,0,0,0-5.17-1.77A7.06,7.06,0,0,0,66,48.14a8.91,8.91,0,0,0-2.32,5.08h15A7.12,7.12,0,0,0,76.35,48Z"/></g></svg>