<svg id="Livello_4" data-name="Livello 4" xmlns="http://www.w3.org/2000/svg" viewBox="0 0 102.5 102.5"><defs><style>.cls-1{fill:#20234a;}</style></defs><title>social-ig</title><path class="cls-1" d="M74.19,33.89a9.75,9.75,0,0,0-5.58-5.58,16.42,16.42,0,0,0-5.47-1c-3.1-.15-4-.18-11.89-.18s-8.79,0-11.89.18a16.42,16.42,0,0,0-5.47,1,9.75,9.75,0,0,0-5.58,5.58,16.42,16.42,0,0,0-1,5.47c-.15,3.1-.18,4-.18,11.89s0,8.79.18,11.89a16.42,16.42,0,0,0,1,5.47,9.75,9.75,0,0,0,5.58,5.58,16.35,16.35,0,0,0,5.47,1c3.1.14,4,.17,11.89.17s8.79,0,11.89-.17a16.35,16.35,0,0,0,5.47-1,9.77,9.77,0,0,0,5.58-5.58,16.42,16.42,0,0,0,1-5.47c.15-3.1.18-4,.18-11.89s0-8.79-.18-11.89A16.42,16.42,0,0,0,74.19,33.89ZM51.25,66.36A15.11,15.11,0,1,1,66.36,51.25,15.1,15.1,0,0,1,51.25,66.36ZM67,39.07a3.53,3.53,0,1,1,3.53-3.53A3.53,3.53,0,0,1,67,39.07Z"/><circle class="cls-1" cx="51.25" cy="51.25" r="9.81"/><path class="cls-1" d="M-.92-1.08V103.5H103.67V-1.08ZM80.5,63.38a21.5,21.5,0,0,1-1.37,7.15,15,15,0,0,1-8.6,8.6,21.45,21.45,0,0,1-7.15,1.37c-3.13.14-4.14.18-12.13.18s-9,0-12.13-.18A21.55,21.55,0,0,1,32,79.13a15,15,0,0,1-8.6-8.6A21.45,21.45,0,0,1,22,63.38c-.15-3.14-.18-4.14-.18-12.13s0-9,.18-12.13A21.5,21.5,0,0,1,23.37,32a15,15,0,0,1,8.6-8.6A21.5,21.5,0,0,1,39.12,22c3.14-.14,4.14-.18,12.13-.18s9,0,12.13.18a21.5,21.5,0,0,1,7.15,1.37,15,15,0,0,1,8.6,8.6,21.5,21.5,0,0,1,1.37,7.15c.15,3.14.18,4.14.18,12.13S80.65,60.24,80.5,63.38Z"/></svg>