<svg xmlns="http://www.w3.org/2000/svg" viewBox="0 0 250 250"><defs><style>.cls-1,.cls-3{fill:none;stroke:#5e6e9e;stroke-miterlimit:10;stroke-width:0.75px;}.cls-1,.cls-2{opacity:0.32;}</style></defs><title>texture-2</title><g id="VM"><path class="cls-1" d="M109.82,146.8a.45.45,0,0,1-.62.2.38.38,0,0,1-.13-.09.33.33,0,0,1-.06-.3l5.07-18.89h2.34Zm22.38-.19a.33.33,0,0,1-.06.3.47.47,0,0,1-.65,0,.64.64,0,0,1-.1-.13l-6.61-19.08h.07q.34,0,.69,0l.33,0a1.63,1.63,0,0,1,.31,0l.46-.09.08,0,.55-.14Zm-4.66-21h0a7.07,7.07,0,0,1-2,.5h0l-.68,0H106.75a3.87,3.87,0,0,1,3.79-3.09H123a5.43,5.43,0,0,0,5.31-4.36l2.21-11.06a4.93,4.93,0,0,1,3.87-3.84l-2.64,16.49A7,7,0,0,1,127.54,125.63Z"/><path class="cls-1" d="M109.82,45.05a.45.45,0,0,1-.62.2l-.13-.09a.33.33,0,0,1-.06-.3L114.08,26h2.34Zm22.38-.19a.33.33,0,0,1-.06.3.46.46,0,0,1-.65,0,.4.4,0,0,1-.1-.12L124.78,26h.07q.34,0,.69,0l.33,0,.31,0,.46-.08.08,0,.55-.14Zm-4.66-21h0a7.43,7.43,0,0,1-2,.5h0l-.68,0H106.75a3.87,3.87,0,0,1,3.79-3.1H123A5.42,5.42,0,0,0,128.29,17L130.5,5.92a4.93,4.93,0,0,1,3.87-3.84l-2.64,16.49A7,7,0,0,1,127.54,23.88Z"/><path class="cls-1" d="M109.82,197.68a.45.45,0,0,1-.62.2l-.13-.1a.32.32,0,0,1-.06-.3l5.07-18.88h2.34Zm22.38-.2a.31.31,0,0,1-.06.3.45.45,0,0,1-.65,0,.58.58,0,0,1-.1-.12l-6.61-19.08h.07q.34,0,.69,0l.33,0,.31,0,.46-.09.08,0a5.47,5.47,0,0,0,.55-.13Zm-4.66-21h0a7.43,7.43,0,0,1-2,.5h0l-.68,0H106.75a3.87,3.87,0,0,1,3.79-3.1H123a5.43,5.43,0,0,0,5.31-4.35l2.21-11.06a4.93,4.93,0,0,1,3.87-3.84l-2.64,16.49A7,7,0,0,1,127.54,176.51Z"/><path class="cls-1" d="M147.66,146.8a.47.47,0,0,1-.63.2.38.38,0,0,1-.13-.09.33.33,0,0,1-.06-.3l5.07-18.89h2.34Zm22.38-.19a.39.39,0,0,1-.06.3.48.48,0,0,1-.66,0,.64.64,0,0,1-.1-.13l-6.61-19.08h.07c.23,0,.47,0,.69,0l.33,0a1.63,1.63,0,0,1,.31,0l.46-.09.08,0,.55-.14Zm-4.67-21h0a7,7,0,0,1-2,.5h0l-.68,0H144.58a3.87,3.87,0,0,1,3.79-3.09h12.44a5.45,5.45,0,0,0,5.32-4.36l2.2-11.06a4.93,4.93,0,0,1,3.87-3.84l-2.64,16.49A6.94,6.94,0,0,1,165.37,125.63Z"/><path class="cls-1" d="M185.49,197.68a.47.47,0,0,1-.63.2l-.13-.1a.35.35,0,0,1,0-.3l5.07-18.88h2.34Zm22.38-.2a.31.31,0,0,1-.06.3.46.46,0,0,1-.66,0,.58.58,0,0,1-.1-.12l-6.6-19.08h.06q.36,0,.69,0l.33,0,.31,0,.46-.09.08,0a5.47,5.47,0,0,0,.55-.13Zm-4.67-21h0a7.24,7.24,0,0,1-2,.5h0l-.68,0H182.41a3.88,3.88,0,0,1,3.79-3.1h12.45a5.44,5.44,0,0,0,5.31-4.35l2.2-11.06a4.93,4.93,0,0,1,3.87-3.84l-2.64,16.49A6.92,6.92,0,0,1,203.2,176.51Z"/><path class="cls-1" d="M185.49,248.55a.47.47,0,0,1-.63.21l-.13-.1a.35.35,0,0,1,0-.3l5.07-18.89h2.34Zm22.38-.19a.32.32,0,0,1-.06.3.48.48,0,0,1-.66,0,.64.64,0,0,1-.1-.13l-6.6-19.08h.06l.69,0,.33,0,.31,0,.46-.09.08,0,.55-.13Zm-4.67-21h0a6.91,6.91,0,0,1-2,.51h0l-.68,0H182.41a3.88,3.88,0,0,1,3.79-3.1h12.45a5.44,5.44,0,0,0,5.31-4.35l2.2-11.06a4.9,4.9,0,0,1,3.87-3.84l-2.64,16.48A6.91,6.91,0,0,1,203.2,227.38Z"/><path class="cls-1" d="M238.19,229.47h2.34l5.07,18.89a.33.33,0,0,1-.06.3.4.4,0,0,1-.12.1.47.47,0,0,1-.63-.21Zm-10.85-.34.56.13.07,0c.16,0,.31.07.47.09l.31,0,.33,0,.68,0h.07l-6.61,19.08a.6.6,0,0,1-.09.13.48.48,0,0,1-.66,0,.32.32,0,0,1-.06-.3Zm-4.46-7.06-2.64-16.48a4.88,4.88,0,0,1,3.87,3.84l2.21,11.06a5.44,5.44,0,0,0,5.31,4.35h12.44a3.89,3.89,0,0,1,3.8,3.1h-18.1l-.67,0h0a7.06,7.06,0,0,1-2-.51h0A7,7,0,0,1,222.88,222.07Z"/><path class="cls-1" d="M71.85,197.68a.47.47,0,0,1-.63.2l-.13-.1a.35.35,0,0,1,0-.3l5.07-18.88h2.34Zm22.38-.2a.31.31,0,0,1-.06.3.46.46,0,0,1-.66,0,.58.58,0,0,1-.1-.12l-6.6-19.08h.06q.36,0,.69,0l.33,0,.31,0,.46-.09.08,0a4.9,4.9,0,0,0,.55-.13Zm-4.67-21h0a7.24,7.24,0,0,1-2,.5h0l-.68,0H68.77a3.88,3.88,0,0,1,3.79-3.1H85a5.44,5.44,0,0,0,5.31-4.35l2.2-11.06a4.93,4.93,0,0,1,3.87-3.84L93.75,171.2A6.92,6.92,0,0,1,89.56,176.51Z"/><path class="cls-1" d="M109.82,248.55a.46.46,0,0,1-.62.21l-.13-.1a.33.33,0,0,1-.06-.3l5.07-18.89h2.34Zm22.38-.19a.32.32,0,0,1-.06.3.47.47,0,0,1-.65,0,.64.64,0,0,1-.1-.13l-6.61-19.08h.07l.69,0,.33,0,.31,0,.46-.09.08,0,.55-.13Zm-4.66-21h0a7.09,7.09,0,0,1-2,.51h0l-.68,0H106.75a3.87,3.87,0,0,1,3.79-3.1H123a5.43,5.43,0,0,0,5.31-4.35l2.21-11.06a4.9,4.9,0,0,1,3.87-3.84l-2.64,16.48A7,7,0,0,1,127.54,227.38Z"/><path class="cls-1" d="M147.66,248.55a.47.47,0,0,1-.63.21l-.13-.1a.33.33,0,0,1-.06-.3l5.07-18.89h2.34Zm22.38-.19a.39.39,0,0,1-.06.3.48.48,0,0,1-.66,0,.64.64,0,0,1-.1-.13l-6.61-19.08h.07l.69,0,.33,0,.31,0,.46-.09.08,0,.55-.13Zm-4.67-21h0a7,7,0,0,1-2,.51h0l-.68,0H144.58a3.87,3.87,0,0,1,3.79-3.1h12.44a5.45,5.45,0,0,0,5.32-4.35l2.2-11.06a4.9,4.9,0,0,1,3.87-3.84l-2.64,16.48A6.93,6.93,0,0,1,165.37,227.38Z"/><path class="cls-1" d="M162.53,76.93h2.34l5.07,18.89a.33.33,0,0,1-.06.3.38.38,0,0,1-.13.09.45.45,0,0,1-.62-.2Zm-10.85-.35.55.14.08,0,.46.09.31,0,.33,0q.34,0,.69,0h.07L147.56,96a.64.64,0,0,1-.1.13.48.48,0,0,1-.66,0,.35.35,0,0,1-.05-.3Zm-4.46-7L144.58,53a4.93,4.93,0,0,1,3.87,3.85l2.21,11A5.43,5.43,0,0,0,156,72.3h12.44a3.87,3.87,0,0,1,3.79,3.09H154.11l-.68,0h0a7.45,7.45,0,0,1-2-.51h0A6.94,6.94,0,0,1,147.22,69.53Z"/><path class="cls-1" d="M86.72,229.47h2.34l5.07,18.89a.33.33,0,0,1-.06.3l-.12.1a.46.46,0,0,1-.63-.21Zm-10.85-.34.55.13.08,0c.16,0,.31.07.47.09l.31,0,.32,0,.69,0h.07l-6.61,19.08a.64.64,0,0,1-.1.13.47.47,0,0,1-.65,0,.32.32,0,0,1-.06-.3Zm-4.46-7.06-2.64-16.48a4.89,4.89,0,0,1,3.87,3.84l2.21,11.06a5.44,5.44,0,0,0,5.31,4.35H92.6a3.87,3.87,0,0,1,3.79,3.1H78.3l-.68,0h0a7.06,7.06,0,0,1-2-.51h0A7,7,0,0,1,71.41,222.07Z"/><path class="cls-1" d="M33.87,248.55a.46.46,0,0,1-.63.21l-.12-.1a.33.33,0,0,1-.06-.3l5.07-18.89h2.34Zm22.38-.19a.32.32,0,0,1-.06.3.47.47,0,0,1-.65,0,.64.64,0,0,1-.1-.13l-6.61-19.08h.07l.69,0,.32,0,.31,0c.16,0,.31-.06.47-.09l.08,0,.55-.13Zm-4.66-21h0a7.06,7.06,0,0,1-2,.51h0l-.68,0H30.8a3.87,3.87,0,0,1,3.79-3.1H47a5.44,5.44,0,0,0,5.31-4.35l2.21-11.06a4.89,4.89,0,0,1,3.87-3.84l-2.64,16.48A7,7,0,0,1,51.59,227.38Z"/><g class="cls-2"><path class="cls-3" d="M147.22,173l.6.91H169l.57-.87a2.3,2.3,0,0,1,.7-.69l-3.66-15.79a2.46,2.46,0,0,0-2.4-1.91H152.62a2.46,2.46,0,0,0-2.4,1.91l-3.65,15.78A2.27,2.27,0,0,1,147.22,173Z"/><path class="cls-3" d="M172.53,174.05a1,1,0,0,0-.47-.66,1.08,1.08,0,0,0-1.42.35l-.72,1.09a.83.83,0,0,1-.72.39H147.56a.85.85,0,0,1-.72-.39l-.74-1.12a1,1,0,0,0-.67-.45,1,1,0,0,0-.78.17,1.06,1.06,0,0,0-.24,1.44l.84,1.28a2.5,2.5,0,0,0,2.09,1.13h22.09a2.47,2.47,0,0,0,2.08-1.13l.87-1.31h0A1,1,0,0,0,172.53,174.05Z"/><path class="cls-3" d="M167,181.44l3,16.28h.26l-1.44-19.1H148l-.83,11a.13.13,0,0,1,0,.06l-.6,8h.26l3-16.28a1.2,1.2,0,0,1,1.18-1h14.78A1.19,1.19,0,0,1,167,181.44Z"/><path class="cls-3" d="M167.16,189l-6.86-2.39,6-2.09h0l-.23-1.25L158.38,186l-7.69-2.67-.23,1.24,6,2.09L149.62,189l-.26,1.42,9-3.13,9,3.14-.26-1.42Z"/></g><g class="cls-2"><path class="cls-3" d="M222.89,122.09l.6.91h21.12l.58-.87a2.16,2.16,0,0,1,.69-.69l-3.65-15.79a2.46,2.46,0,0,0-2.41-1.91H228.29a2.47,2.47,0,0,0-2.41,1.91l-3.65,15.78A2.31,2.31,0,0,1,222.89,122.09Z"/><path class="cls-3" d="M248.19,123.17a1,1,0,0,0-.47-.66,1.05,1.05,0,0,0-1.41.35l-.72,1.09a.85.85,0,0,1-.72.39H223.23a.85.85,0,0,1-.72-.39l-.74-1.12a1,1,0,0,0-.67-.45,1,1,0,0,0-.78.17,1.05,1.05,0,0,0-.24,1.44l.84,1.28a2.48,2.48,0,0,0,2.08,1.12h22.1a2.46,2.46,0,0,0,2.08-1.12l.87-1.31h0A1.05,1.05,0,0,0,248.19,123.17Z"/><path class="cls-3" d="M242.63,130.56l3,16.28h.26l-1.44-19.11H223.62l-.82,11s0,.05,0,.07l-.61,8h.27l3-16.28a1.19,1.19,0,0,1,1.18-1h14.78A1.21,1.21,0,0,1,242.63,130.56Z"/><path class="cls-3" d="M242.82,138.15,236,135.77l6-2.09h0l-.23-1.25-7.71,2.68-7.69-2.68-.24,1.25,6,2.09-6.85,2.38-.27,1.42,9-3.14,9,3.14-.27-1.42Z"/></g></g></svg>