<svg xmlns="http://www.w3.org/2000/svg" viewBox="0 0 250 200"><defs><style>.cls-1{opacity:0.32;}.cls-2{fill:#5e6e9e;}</style></defs><title>texture-1</title><g id="INDUSTRIAL_DESIGN" data-name="INDUSTRIAL DESIGN"><g id="Livello_17" data-name="Livello 17"><g class="cls-1"><rect class="cls-2" x="4.05" y="105.75" width="20.81" height="0.75"/><rect class="cls-2" x="4.05" y="97.31" width="20.81" height="0.75"/><path class="cls-2" d="M24.85,176.31H4.05a.37.37,0,0,1-.38-.37V106.12a.13.13,0,0,1,0-.06V86.24c0-3.08,5.41-4.46,10.78-4.46s10.77,1.38,10.77,4.46v89.7A.37.37,0,0,1,24.85,176.31Zm-20.43-.75H24.48V86.24c0-2.43-5-3.71-10-3.71s-10,1.28-10,3.71v19.88s0,0,0,.06Z"/><path class="cls-2" d="M14.46,199.36a1,1,0,0,1-.89-.58L3.71,176.09a.34.34,0,0,1,0-.35.36.36,0,0,1,.31-.17H24.86a.36.36,0,0,1,.31.17.36.36,0,0,1,0,.35l-9.85,22.69A1,1,0,0,1,14.46,199.36Zm-9.84-23,5.8,13.33h0l3.84,8.83a.22.22,0,0,0,.4,0l9.63-22.16Z"/><rect class="cls-2" x="10.08" y="189.43" width="8.77" height="0.75"/><rect class="cls-2" x="11.72" y="106.11" width="1" height="69.83"/><rect class="cls-2" x="8.92" y="106.11" width="1" height="69.82"/><rect class="cls-2" x="16.2" y="106.12" width="1" height="69.82"/><rect class="cls-2" x="18.99" y="106.12" width="1" height="69.82"/></g><g class="cls-1"><rect class="cls-2" x="88.52" y="107.78" width="0.51" height="14.12"/><rect class="cls-2" x="94.24" y="107.78" width="0.51" height="14.12"/><path class="cls-2" d="M41.14,121.9V107.78a.26.26,0,0,1,.26-.26h60.86c2.09,0,3,3.67,3,7.31s-.94,7.32-3,7.32H41.4A.26.26,0,0,1,41.14,121.9ZM41.65,108v13.61h60.61c1.66,0,2.52-3.43,2.52-6.81s-.86-6.8-2.52-6.8H41.65Z"/><path class="cls-2" d="M25.51,114.84a.66.66,0,0,1,.39-.6l15.39-6.69a.25.25,0,0,1,.25,0,.26.26,0,0,1,.11.21V121.9a.24.24,0,0,1-.11.21.25.25,0,0,1-.25,0L25.9,115.45A.66.66,0,0,1,25.51,114.84Zm15.63-6.67-9,3.93h0l-6,2.61a.13.13,0,0,0-.09.13.15.15,0,0,0,.09.14l15,6.53Z"/><rect class="cls-2" x="31.74" y="111.87" width="0.51" height="5.95"/><rect class="cls-2" x="41.4" y="112.98" width="47.38" height="0.68"/><rect class="cls-2" x="41.4" y="111.08" width="47.38" height="0.68"/><rect class="cls-2" x="41.4" y="116.02" width="47.38" height="0.68"/><rect class="cls-2" x="41.4" y="117.92" width="47.38" height="0.68"/></g><g class="cls-1"><rect class="cls-2" x="78.45" y="56.8" width="11.15" height="0.4"/><rect class="cls-2" x="78.45" y="52.28" width="11.15" height="0.4"/><path class="cls-2" d="M89.6,94.62H78.45a.2.2,0,0,1-.2-.2V46.35C78.25,44.7,81.15,44,84,44s5.77.74,5.77,2.39V94.42A.2.2,0,0,1,89.6,94.62Zm-10.95-.4H89.4V46.35c0-1.31-2.7-2-5.37-2s-5.38.68-5.38,2V94.22Z"/><path class="cls-2" d="M84,107a.52.52,0,0,1-.48-.31L78.27,94.5a.19.19,0,0,1,0-.19.2.2,0,0,1,.17-.09H89.6a.2.2,0,0,1,.17.09.21.21,0,0,1,0,.19l-5.28,12.16A.53.53,0,0,1,84,107ZM78.76,94.62l3.1,7.15h0l2.06,4.73a.12.12,0,0,0,.11.07.13.13,0,0,0,.11-.07L89.3,94.62Z"/><rect class="cls-2" x="81.68" y="101.65" width="4.7" height="0.4"/><rect class="cls-2" x="82.56" y="57" width="0.54" height="37.43"/><rect class="cls-2" x="81.06" y="57" width="0.54" height="37.42"/><rect class="cls-2" x="84.96" y="57" width="0.54" height="37.42"/><rect class="cls-2" x="86.46" y="57" width="0.54" height="37.42"/></g><g class="cls-1"><rect class="cls-2" x="223.85" y="15.53" width="12.47" height="0.45"/><rect class="cls-2" x="223.85" y="10.47" width="12.47" height="0.45"/><path class="cls-2" d="M236.31,57.83H223.84a.23.23,0,0,1-.22-.23V3.84c0-1.85,3.25-2.67,6.46-2.67s6.46.82,6.46,2.67V57.6A.23.23,0,0,1,236.31,57.83Zm-12.24-.45h12V3.84c0-1.46-3-2.22-6-2.22s-6,.76-6,2.22V57.38Z"/><path class="cls-2" d="M230.08,71.64a.56.56,0,0,1-.53-.35l-5.91-13.6a.22.22,0,0,1,.2-.31h12.48a.26.26,0,0,1,.19.1.22.22,0,0,1,0,.21l-5.9,13.6A.58.58,0,0,1,230.08,71.64Zm-5.89-13.81,3.47,8h0l2.3,5.29a.13.13,0,0,0,.12.08.15.15,0,0,0,.13-.08L236,57.83Z"/><rect class="cls-2" x="227.46" y="65.68" width="5.25" height="0.45"/><rect class="cls-2" x="228.44" y="15.75" width="0.6" height="41.85"/><rect class="cls-2" x="226.76" y="15.75" width="0.6" height="41.85"/><rect class="cls-2" x="231.13" y="15.75" width="0.6" height="41.85"/><rect class="cls-2" x="232.8" y="15.75" width="0.6" height="41.85"/></g><g class="cls-1"><rect class="cls-2" x="172.66" y="73.08" width="11.15" height="0.4"/><rect class="cls-2" x="172.66" y="68.56" width="11.15" height="0.4"/><path class="cls-2" d="M183.81,110.9H172.66a.2.2,0,0,1-.2-.2V62.63c0-1.65,2.9-2.39,5.78-2.39S184,61,184,62.63V73.28s0,0,0,0V110.7A.2.2,0,0,1,183.81,110.9Zm-10.95-.4h10.75V62.63c0-1.31-2.7-2-5.37-2s-5.37.68-5.37,2V110.5Z"/><path class="cls-2" d="M178.24,123.25a.53.53,0,0,1-.48-.31l-5.28-12.16a.21.21,0,0,1,0-.19.24.24,0,0,1,.17-.09h11.16a.2.2,0,0,1,.16.09.19.19,0,0,1,0,.19l-5.28,12.16A.52.52,0,0,1,178.24,123.25ZM173,110.9l3.11,7.15h0l2,4.73a.12.12,0,0,0,.22,0l5.16-11.88Z"/><rect class="cls-2" x="175.89" y="117.93" width="4.7" height="0.4"/><rect class="cls-2" x="176.77" y="73.28" width="0.54" height="37.43"/><rect class="cls-2" x="175.27" y="73.28" width="0.54" height="37.42"/><rect class="cls-2" x="179.17" y="73.28" width="0.54" height="37.42"/><rect class="cls-2" x="180.67" y="73.28" width="0.54" height="37.42"/></g><g class="cls-1"><rect class="cls-2" x="128.23" y="133.67" width="14.83" height="0.53"/><rect class="cls-2" x="128.23" y="139.68" width="14.83" height="0.53"/><path class="cls-2" d="M128.23,83.9h14.83a.27.27,0,0,1,.27.27v63.94c0,2.19-3.85,3.17-7.68,3.17s-7.68-1-7.68-3.17V84.17A.27.27,0,0,1,128.23,83.9Zm14.56.54H128.5v63.67c0,1.73,3.6,2.64,7.15,2.64s7.15-.91,7.15-2.64V84.44Z"/><path class="cls-2" d="M135.64,67.47a.7.7,0,0,1,.64.42l7,16.17a.28.28,0,0,1,0,.25.25.25,0,0,1-.22.12H128.23a.27.27,0,0,1-.23-.12.28.28,0,0,1,0-.25l7-16.17A.67.67,0,0,1,135.64,67.47Zm7,16.43-4.13-9.51h0l-2.73-6.29a.17.17,0,0,0-.15-.09.15.15,0,0,0-.14.09l-6.87,15.8Z"/><rect class="cls-2" x="132.52" y="74.02" width="6.25" height="0.53"/><rect class="cls-2" x="136.88" y="84.17" width="0.71" height="49.78"/><rect class="cls-2" x="138.88" y="84.17" width="0.71" height="49.77"/><rect class="cls-2" x="133.69" y="84.17" width="0.71" height="49.77"/><rect class="cls-2" x="131.7" y="84.17" width="0.71" height="49.77"/></g><g class="cls-1"><rect class="cls-2" x="140.05" y="55.55" width="0.4" height="11.15"/><rect class="cls-2" x="144.57" y="55.55" width="0.4" height="11.15"/><path class="cls-2" d="M102.63,66.7V55.55a.2.2,0,0,1,.2-.2H150.9c1.65,0,2.39,2.9,2.39,5.78s-.74,5.78-2.39,5.78H102.83A.2.2,0,0,1,102.63,66.7Zm.4-11V66.5H150.9c1.31,0,2-2.7,2-5.37s-.68-5.38-2-5.38H103Z"/><path class="cls-2" d="M90.28,61.13a.53.53,0,0,1,.31-.48l12.16-5.28a.21.21,0,0,1,.19,0,.22.22,0,0,1,.09.17V66.7a.21.21,0,0,1-.09.17.19.19,0,0,1-.19,0L90.59,61.61A.53.53,0,0,1,90.28,61.13Zm12.35-5.27L95.48,59h0L90.75,61a.12.12,0,0,0,0,.22l11.88,5.16Z"/><rect class="cls-2" x="95.2" y="58.78" width="0.4" height="4.7"/><rect class="cls-2" x="102.83" y="59.66" width="37.43" height="0.54"/><rect class="cls-2" x="102.83" y="58.16" width="37.42" height="0.54"/><rect class="cls-2" x="102.83" y="62.06" width="37.42" height="0.54"/><rect class="cls-2" x="102.83" y="63.56" width="37.42" height="0.54"/></g><g class="cls-1"><rect class="cls-2" x="234.08" y="72.52" width="0.4" height="11.15"/><rect class="cls-2" x="238.6" y="72.52" width="0.4" height="11.15"/><path class="cls-2" d="M196.66,83.67V72.52a.2.2,0,0,1,.2-.2h48.07c1.65,0,2.39,2.9,2.39,5.78s-.74,5.77-2.39,5.77H196.86A.2.2,0,0,1,196.66,83.67Zm.4-11V83.47h47.87c1.31,0,2-2.7,2-5.37s-.68-5.38-2-5.38H197.06Z"/><path class="cls-2" d="M184.31,78.1a.52.52,0,0,1,.31-.48l12.16-5.29a.21.21,0,0,1,.19,0,.2.2,0,0,1,.09.17V83.67a.2.2,0,0,1-.09.17.21.21,0,0,1-.19,0l-12.16-5.28A.53.53,0,0,1,184.31,78.1Zm12.35-5.27-7.15,3.1h0L184.78,78a.12.12,0,0,0-.07.11.13.13,0,0,0,.07.11l11.88,5.16Z"/><rect class="cls-2" x="189.23" y="75.75" width="0.4" height="4.7"/><rect class="cls-2" x="196.86" y="76.63" width="37.43" height="0.54"/><rect class="cls-2" x="196.86" y="75.13" width="37.42" height="0.54"/><rect class="cls-2" x="196.86" y="79.03" width="37.42" height="0.54"/><rect class="cls-2" x="196.86" y="80.53" width="37.42" height="0.54"/></g><g class="cls-1"><rect class="cls-2" x="181.61" y="124.24" width="0.3" height="8.44"/><rect class="cls-2" x="185.03" y="124.24" width="0.3" height="8.44"/><path class="cls-2" d="M153.29,132.67v-8.44a.15.15,0,0,1,.15-.15h36.38c1.25,0,1.81,2.2,1.81,4.38s-.56,4.37-1.81,4.37H153.44A.15.15,0,0,1,153.29,132.67Zm.3-8.28v8.13h36.23c1,0,1.51-2,1.51-4.06s-.52-4.07-1.51-4.07H153.59Z"/><path class="cls-2" d="M143.94,128.46a.38.38,0,0,1,.24-.36l9.2-4a.12.12,0,0,1,.14,0,.13.13,0,0,1,.07.12v8.44a.14.14,0,0,1-.07.13.14.14,0,0,1-.14,0l-9.2-4A.39.39,0,0,1,143.94,128.46Zm9.35-4-5.41,2.35h0l-3.58,1.55a.09.09,0,0,0-.05.09.08.08,0,0,0,.05.08l9,3.9Z"/><rect class="cls-2" x="147.67" y="126.68" width="0.3" height="3.56"/><rect class="cls-2" x="153.44" y="127.34" width="28.32" height="0.41"/><rect class="cls-2" x="153.44" y="126.21" width="28.32" height="0.41"/><rect class="cls-2" x="153.44" y="129.16" width="28.32" height="0.41"/><rect class="cls-2" x="153.44" y="130.3" width="28.32" height="0.41"/></g></g></g></svg>