<svg xmlns="http://www.w3.org/2000/svg" viewBox="0 0 250 280"><defs><style>.cls-1{fill:none;stroke:#5e6e9e;stroke-linejoin:round;stroke-width:0.75px;opacity:0.32;}</style></defs><title>texture-4</title><g id="LIGHTING"><path class="cls-1" d="M74.38,91.59V13.89H176.51V44.1"/><path class="cls-1" d="M39.25,119.79c5.42-18,15.6-30.09,27.27-30.09C83.88,89.7,98,116.5,98,149.56c0,.59,0,1.19,0,1.78"/><path class="cls-1" d="M62.59,209a19.7,19.7,0,0,1-4.85-1.9"/><path class="cls-1" d="M82.23,201.4a29.34,29.34,0,0,1-4.41,4"/><path class="cls-1" d="M200.83,60l-40-26.14V129"/><path class="cls-1" d="M82.23,205.42v-39.9l35.36-31.92,28.69,21.19"/><path class="cls-1" d="M117.59,203.24V161.53l17.63,11.94"/><path class="cls-1" d="M90.09,29.85H98v12H90.09Z"/><path class="cls-1" d="M105.8,41.82h7.86v12H105.8Z"/><path class="cls-1" d="M90.09,53.79H98v12H90.09Z"/><path class="cls-1" d="M105.8,65.76h7.86v12H105.8Z"/><path class="cls-1" d="M90.09,81.72H98v12H90.09Z"/><path class="cls-1" d="M105.8,93.69h7.86v12H105.8Z"/><path class="cls-1" d="M105.8,117.64h7.86v12H105.8Z"/><path class="cls-1" d="M121.52,29.85h7.85v12h-7.85Z"/><path class="cls-1" d="M137.23,41.82h7.86v12h-7.86Z"/><path class="cls-1" d="M121.52,53.79h7.85v12h-7.85Z"/><path class="cls-1" d="M137.23,65.76h7.86v12h-7.86Z"/><path class="cls-1" d="M121.52,81.72h7.85v12h-7.85Z"/><path class="cls-1" d="M121.52,105.66h7.85v12h-7.85Z"/><path class="cls-1" d="M137.23,93.69h7.86v12h-7.86Z"/><path class="cls-1" d="M137.23,117.64h7.86v12h-7.86Z"/><path class="cls-1" d="M176.51,65.76h7.86v12h-7.86Z"/><path class="cls-1" d="M176.51,101.67v-12h7.17"/><path class="cls-1" d="M98,209.41h7.85v12H98Z"/><path class="cls-1" d="M82.23,245.32v-39.9H77.82"/><path class="cls-1" d="M65.86,245.32H93.32"/><path class="cls-1" d="M77.82,205.42H73.39a14.52,14.52,0,0,0-2.94.3h0V159.19L85,144.4l-5.56-5.65-13.3,13.52-13-9.9-4.71,6.39,14.14,10.77v50.68a14.78,14.78,0,0,0-3.08,5.16"/><polygon class="cls-1" points="13.86 0 235.63 0 73.2 280 13.86 0"/><path class="cls-1" d="M51.58,33.22a9.63,9.63,0,0,1-7.51-15.64,9.62,9.62,0,1,0,9.17,15.48A9.07,9.07,0,0,1,51.58,33.22Z"/></g></svg>