<svg xmlns="http://www.w3.org/2000/svg" viewBox="0 0 250 250"><defs><style>.cls-1{fill:none;stroke:#5e6e9e;stroke-linejoin:round;stroke-width:0.75px;opacity:0.32;}</style></defs><title>texture-5</title><g id="UX_UI" data-name="UX/UI"><g id="Livello_19" data-name="Livello 19"><path class="cls-1" d="M33.82,5.51C33.82,11,37,15.88,41.89,19a3.51,3.51,0,0,1,0,5.92c-4.92,3.14-8.07,8-8.07,13.52m24.71,0h0c0-5.49-3.16-10.38-8.07-13.52a3.51,3.51,0,0,1,0-5.92c4.91-3.14,8.07-8,8.07-13.51H33.82a1.46,1.46,0,0,1-1.38-1.45v-2H59.9V4.13a1.37,1.37,0,0,1-1.37,1.38h0m-24.71,33h0a1.47,1.47,0,0,0-1.38,1.46v2H59.9V39.83a1.37,1.37,0,0,0-1.37-1.37Z"/><path class="cls-1" d="M46.17,30.22c-.28.85-1.28,1.61-2.8,2.08-3.87,1.2-6.26,2.92-6.72,4.78H55.7c-.46-1.86-2.85-3.58-6.72-4.78C47.46,31.83,46.45,31.07,46.17,30.22Z"/><path class="cls-1" d="M37.94,11a15.44,15.44,0,0,0,5.43,5.71A6.21,6.21,0,0,1,46.17,21,6.22,6.22,0,0,1,49,16.71,15.33,15.33,0,0,0,54.4,11Z"/><path class="cls-1" d="M46.17,24.68a.64.64,0,0,0,.65-.64h0v-.69a.65.65,0,0,0-1.29,0V24a.64.64,0,0,0,.64.64Z"/><path class="cls-1" d="M45.53,27.47a.65.65,0,1,0,1.29,0v-.68a.65.65,0,1,0-1.29,0Z"/><path class="cls-1" d="M33.82,212.34c0,5.49,3.15,10.37,8.07,13.52a3.51,3.51,0,0,1,0,5.92c-4.92,3.14-8.07,8-8.07,13.51m24.71,0h0c0-5.49-3.16-10.37-8.07-13.51a3.51,3.51,0,0,1,0-5.92c4.91-3.15,8.07-8,8.07-13.52H33.82a1.47,1.47,0,0,1-1.38-1.46v-2H59.9V211a1.37,1.37,0,0,1-1.37,1.37h0M33.82,245.29h0a1.46,1.46,0,0,0-1.38,1.45v2H59.9v-2.06a1.37,1.37,0,0,0-1.37-1.37Z"/><path class="cls-1" d="M46.17,237.05c-.28.85-1.28,1.61-2.8,2.08-3.87,1.21-6.26,2.92-6.72,4.79H55.7c-.46-1.87-2.85-3.58-6.72-4.79C47.46,238.66,46.45,237.9,46.17,237.05Z"/><path class="cls-1" d="M37.94,217.83a15.36,15.36,0,0,0,5.43,5.71,6.25,6.25,0,0,1,2.8,4.28A6.26,6.26,0,0,1,49,223.54a15.25,15.25,0,0,0,5.42-5.71Z"/><path class="cls-1" d="M46.17,231.52a.65.65,0,0,0,.65-.65h0v-.68a.65.65,0,0,0-1.29,0v.68a.65.65,0,0,0,.64.65Z"/><path class="cls-1" d="M45.53,234.31a.65.65,0,0,0,1.29,0v-.69a.65.65,0,0,0-1.29,0Z"/><path class="cls-1" d="M49.09,50.77C45.2,54.65,44,60.33,45.24,66a3.52,3.52,0,0,1-4.19,4.19c-5.7-1.26-11.38,0-15.26,3.85M43.26,91.54h0c3.88-3.88,5.1-9.57,3.85-15.26a3.52,3.52,0,0,1,4.19-4.19c5.69,1.25,11.38,0,15.26-3.85L49.09,50.77h0a1.46,1.46,0,0,1,.06-2l1.39-1.39L70,66.78,68.5,68.24a1.36,1.36,0,0,1-1.94,0h0M25.79,74.07h0a1.46,1.46,0,0,0-2,.06l-1.39,1.39L41.8,94.94l1.46-1.46a1.36,1.36,0,0,0,0-1.94Z"/><path class="cls-1" d="M40.35,77c-.8.4-2.05.23-3.46-.52-3.58-1.88-6.49-2.36-8.13-1.37L42.23,88.57c1-1.65.51-4.55-1.37-8.14C40.12,79,39.94,77.78,40.35,77Z"/><path class="cls-1" d="M48.12,57.57a15.3,15.3,0,0,0-.2,7.87,6.25,6.25,0,0,1-1,5,6.21,6.21,0,0,1,5-1,15.42,15.42,0,0,0,7.87-.2Z"/><path class="cls-1" d="M44.26,73.06a.65.65,0,0,0,.91,0h0l.49-.48a.64.64,0,0,0-.91-.91l-.49.48a.65.65,0,0,0,0,.91Z"/><path class="cls-1" d="M41.84,74.58a.63.63,0,0,0,0,.91.65.65,0,0,0,.91,0l.48-.48a.65.65,0,0,0,0-.91.63.63,0,0,0-.91,0Z"/><path class="cls-1" d="M66.56,127.91c-3.88-3.88-9.57-5.1-15.26-3.85a3.51,3.51,0,0,1-4.19-4.18c1.25-5.7,0-11.39-3.85-15.27M25.79,122.09h0c3.88,3.88,9.56,5.1,15.26,3.85a3.52,3.52,0,0,1,4.19,4.18c-1.26,5.7,0,11.39,3.85,15.27l17.47-17.48h0a1.46,1.46,0,0,1,2,0l1.4,1.4L50.54,148.79l-1.45-1.46a1.36,1.36,0,0,1,0-1.94h0m-5.83-40.78h0a1.46,1.46,0,0,0-.06-2l-1.4-1.4L22.39,120.63l1.45,1.46a1.39,1.39,0,0,0,1.95,0Z"/><path class="cls-1" d="M40.35,119.17c-.41-.79-.23-2,.51-3.45,1.88-3.59,2.36-6.49,1.37-8.14L28.76,121.06c1.64,1,4.55.51,8.13-1.37C38.3,119,39.55,118.77,40.35,119.17Z"/><path class="cls-1" d="M59.76,127a15.41,15.41,0,0,0-7.87-.21,6.24,6.24,0,0,1-5-1,6.22,6.22,0,0,1,1,5,15.35,15.35,0,0,0,.2,7.88Z"/><path class="cls-1" d="M44.26,123.09a.65.65,0,0,0,0,.91h0l.49.48a.63.63,0,0,0,.91,0,.65.65,0,0,0,0-.91l-.49-.48a.65.65,0,0,0-.91,0Z"/><path class="cls-1" d="M42.75,120.66a.65.65,0,0,0-.91,0,.63.63,0,0,0,0,.91l.48.49a.64.64,0,0,0,.91-.91Z"/><path class="cls-1" d="M43.26,199.23c3.88-3.88,5.1-9.56,3.85-15.26a3.52,3.52,0,0,1,4.19-4.19c5.69,1.26,11.38,0,15.26-3.85M49.09,158.46h0C45.2,162.34,44,168,45.24,173.72a3.52,3.52,0,0,1-4.19,4.19c-5.7-1.25-11.38,0-15.26,3.85l17.47,17.47h0a1.46,1.46,0,0,1-.06,2l-1.4,1.39L22.39,183.22l1.45-1.46a1.38,1.38,0,0,1,1.95,0h0m40.77-5.83h0a1.46,1.46,0,0,0,2-.06l1.4-1.39L50.54,155.06l-1.45,1.46a1.36,1.36,0,0,0,0,1.94Z"/><path class="cls-1" d="M52,173c.8-.4,2-.23,3.45.52,3.59,1.88,6.49,2.36,8.14,1.36L50.12,161.43c-1,1.65-.52,4.55,1.36,8.14C52.23,171,52.4,172.22,52,173Z"/><path class="cls-1" d="M44.23,192.43a15.41,15.41,0,0,0,.2-7.87,6.22,6.22,0,0,1,1-5,6.22,6.22,0,0,1-5,1,15.41,15.41,0,0,0-7.87.2Z"/><path class="cls-1" d="M48.08,176.94a.63.63,0,0,0-.91,0h0l-.48.48a.64.64,0,1,0,.91.91l.48-.48a.63.63,0,0,0,0-.91Z"/><path class="cls-1" d="M50.51,175.42a.64.64,0,1,0-.91-.91l-.48.48a.63.63,0,0,0,0,.91.65.65,0,0,0,.91,0Z"/></g></g></svg>