<svg xmlns="http://www.w3.org/2000/svg" viewBox="0 0 250 220"><defs><style>.cls-1{opacity:0.32;}.cls-2{fill:none;stroke:#5e6e9e;stroke-miterlimit:10;stroke-width:0.75px;}</style></defs><title>texture-3</title><g id="EXHIBIT"><g id="MAGRITTE"><g class="cls-1"><path class="cls-2" d="M81.25,65.2a2.43,2.43,0,0,1-2.43-2.43V48.21a.39.39,0,1,0-.77,0V62.77a2.43,2.43,0,0,1-4.86,0V37.27a.39.39,0,1,0-.77,0V47.93a1.58,1.58,0,0,1-3.16,0v-13a3.91,3.91,0,0,1,3.9-3.9H83.71a3.91,3.91,0,0,1,3.9,3.9v13a1.58,1.58,0,0,1-3.16,0V37.27a.38.38,0,0,0-.38-.39.39.39,0,0,0-.39.39v25.5a2.43,2.43,0,0,1-2.43,2.43Z"/><path class="cls-2" d="M82.86,24.83a4.43,4.43,0,1,1-4.42-4.43,4.42,4.42,0,0,1,4.42,4.43"/></g><g class="cls-1"><path class="cls-2" d="M52.44,209A2.43,2.43,0,0,1,50,206.56V192a.39.39,0,0,0-.77,0v14.57a2.43,2.43,0,0,1-4.86,0V181.05a.39.39,0,0,0-.77,0v10.66a1.58,1.58,0,0,1-3.16,0v-13a3.91,3.91,0,0,1,3.9-3.9H54.9a3.9,3.9,0,0,1,3.9,3.9v13a1.58,1.58,0,0,1-3.16,0V181.05a.38.38,0,0,0-.38-.38.39.39,0,0,0-.39.38v25.51A2.43,2.43,0,0,1,52.44,209Z"/><path class="cls-2" d="M54.05,168.61a4.43,4.43,0,1,1-4.42-4.42,4.42,4.42,0,0,1,4.42,4.42"/></g><g class="cls-1"><path class="cls-2" d="M194.4,133.24a2.43,2.43,0,0,1-2.43-2.43V116.25a.39.39,0,1,0-.77,0v14.56a2.43,2.43,0,0,1-4.86,0v-25.5a.39.39,0,1,0-.77,0V116a1.58,1.58,0,0,1-3.16,0V103a3.92,3.92,0,0,1,3.9-3.9h10.55a3.91,3.91,0,0,1,3.9,3.9v13a1.58,1.58,0,0,1-3.16,0V105.31a.38.38,0,0,0-.38-.39.39.39,0,0,0-.39.39v25.5a2.43,2.43,0,0,1-2.43,2.43Z"/><path class="cls-2" d="M196,92.87a4.43,4.43,0,1,1-4.42-4.43A4.42,4.42,0,0,1,196,92.87"/></g><g class="cls-1"><path class="cls-2" d="M39.13,111.89a2.44,2.44,0,0,1-2.43-2.43V94.89a.39.39,0,0,0-.38-.39.4.4,0,0,0-.39.39v14.57a2.43,2.43,0,0,1-4.86,0V84a.39.39,0,0,0-.38-.39.4.4,0,0,0-.39.39V94.61a1.58,1.58,0,1,1-3.15,0v-13a3.89,3.89,0,0,1,3.9-3.89H41.59a3.89,3.89,0,0,1,3.9,3.89v13a1.58,1.58,0,1,1-3.15,0V84a.4.4,0,0,0-.39-.39.39.39,0,0,0-.38.39v25.51a2.44,2.44,0,0,1-2.43,2.43Z"/><path class="cls-2" d="M40.75,71.51a4.43,4.43,0,1,1-4.43-4.43,4.45,4.45,0,0,1,4.43,4.43"/></g><g class="cls-1"><path class="cls-2" d="M135.3,47.88a2.43,2.43,0,0,1-2.43-2.43V30.88a.39.39,0,1,0-.77,0V45.45a2.43,2.43,0,0,1-4.86,0V19.94a.39.39,0,1,0-.77,0V30.6a1.58,1.58,0,0,1-3.16,0v-13a3.92,3.92,0,0,1,3.9-3.9h10.55a3.91,3.91,0,0,1,3.9,3.9v13a1.58,1.58,0,1,1-3.16,0V19.94a.39.39,0,1,0-.77,0V45.45a2.43,2.43,0,0,1-2.43,2.43Z"/><path class="cls-2" d="M136.91,7.5a4.43,4.43,0,1,1-4.42-4.43,4.44,4.44,0,0,1,4.42,4.43"/></g><g class="cls-1"><path class="cls-2" d="M218.06,192.91a2.43,2.43,0,0,1-2.43-2.43V175.92a.38.38,0,0,0-.38-.39.39.39,0,0,0-.39.39v14.56a2.43,2.43,0,0,1-4.86,0V165a.38.38,0,0,0-.38-.39.39.39,0,0,0-.39.39v10.66a1.58,1.58,0,0,1-3.15,0v-13a3.91,3.91,0,0,1,3.9-3.9h10.54a3.91,3.91,0,0,1,3.9,3.9v13a1.58,1.58,0,0,1-3.15,0V165a.39.39,0,0,0-.39-.39.38.38,0,0,0-.38.39v25.5a2.43,2.43,0,0,1-2.44,2.43Z"/><path class="cls-2" d="M219.68,152.54a4.43,4.43,0,1,1-4.43-4.43,4.44,4.44,0,0,1,4.43,4.43"/></g><g class="cls-1"><path class="cls-2" d="M230.45,92.19A2.43,2.43,0,0,1,228,89.76V75.19a.39.39,0,0,0-.78,0V89.76a2.43,2.43,0,0,1-4.85,0V64.25a.39.39,0,0,0-.78,0V74.91a1.58,1.58,0,1,1-3.15,0v-13a3.91,3.91,0,0,1,3.9-3.9h10.55a3.9,3.9,0,0,1,3.89,3.9v13a1.58,1.58,0,1,1-3.15,0V64.25a.39.39,0,0,0-.77,0V89.76a2.43,2.43,0,0,1-2.43,2.43Z"/><path class="cls-2" d="M232.06,51.81a4.43,4.43,0,1,1-4.43-4.42,4.43,4.43,0,0,1,4.43,4.42"/></g><g class="cls-1"><path class="cls-2" d="M161.43,92.8a3,3,0,0,1-3-3V72.08a.47.47,0,0,0-.94,0V89.83a3,3,0,0,1-5.93,0V58.74a.47.47,0,0,0-.94,0v13a1.92,1.92,0,1,1-3.84,0V55.87a4.75,4.75,0,0,1,4.75-4.75h12.86a4.75,4.75,0,0,1,4.75,4.75V71.74a1.93,1.93,0,0,1-3.85,0v-13a.47.47,0,1,0-.94,0V89.83a3,3,0,0,1-3,3Z"/><path class="cls-2" d="M163.39,43.58A5.4,5.4,0,1,1,158,38.19a5.4,5.4,0,0,1,5.39,5.39"/></g><g class="cls-1"><path class="cls-2" d="M175.66,213.29a3,3,0,0,1-3-3V192.57a.47.47,0,1,0-.94,0v17.76a3,3,0,0,1-5.92,0v-31.1a.47.47,0,0,0-.94,0v13a1.93,1.93,0,0,1-3.85,0V176.36a4.76,4.76,0,0,1,4.76-4.75h12.85a4.75,4.75,0,0,1,4.75,4.75v15.87a1.92,1.92,0,0,1-3.84,0v-13a.47.47,0,0,0-.94,0v31.1a3,3,0,0,1-3,3Z"/><path class="cls-2" d="M177.62,164.07a5.4,5.4,0,1,1-5.4-5.39,5.4,5.4,0,0,1,5.4,5.39"/></g><g class="cls-1"><path class="cls-2" d="M100.61,153a3,3,0,0,1-3-3V132.24a.48.48,0,0,0-.48-.47.47.47,0,0,0-.47.47V150a3,3,0,0,1-5.92,0V118.9a.47.47,0,0,0-.94,0v13a1.92,1.92,0,1,1-3.84,0V116a4.75,4.75,0,0,1,4.75-4.75H103.6a4.76,4.76,0,0,1,4.76,4.75V131.9a1.93,1.93,0,0,1-3.85,0v-13a.47.47,0,0,0-.94,0V150a3,3,0,0,1-3,3Z"/><path class="cls-2" d="M102.57,103.74a5.4,5.4,0,1,1-5.39-5.39,5.4,5.4,0,0,1,5.39,5.39"/></g><g class="cls-1"><path class="cls-2" d="M19.4,185.54a3,3,0,0,1-3-3V164.82a.47.47,0,0,0-.94,0v17.76a3,3,0,0,1-5.93,0V151.49a.47.47,0,0,0-.94,0v13a1.92,1.92,0,1,1-3.84,0V148.62a4.75,4.75,0,0,1,4.75-4.75H22.4a4.76,4.76,0,0,1,4.75,4.75v15.86a1.93,1.93,0,1,1-3.85,0v-13a.47.47,0,0,0-.94,0v31.09a3,3,0,0,1-3,3Z"/><path class="cls-2" d="M21.36,136.33a5.4,5.4,0,1,1-5.39-5.4,5.39,5.39,0,0,1,5.39,5.4"/></g><g class="cls-1"><path class="cls-2" d="M179.43,50.5a1.56,1.56,0,0,1-1.56-1.56V39.6a.25.25,0,1,0-.5,0v9.34a1.56,1.56,0,0,1-3.12,0V32.58a.25.25,0,1,0-.49,0v6.84a1,1,0,0,1-2,0V31.07a2.52,2.52,0,0,1,2.51-2.5H181a2.52,2.52,0,0,1,2.51,2.5v8.35a1,1,0,0,1-2,0V32.58a.25.25,0,1,0-.49,0V48.94a1.56,1.56,0,0,1-1.56,1.56Z"/><path class="cls-2" d="M180.46,24.6a2.84,2.84,0,1,1-2.84-2.84,2.84,2.84,0,0,1,2.84,2.84"/></g><g class="cls-1"><path class="cls-2" d="M235.32,141.44a1.57,1.57,0,0,1-1.56-1.56v-9.35a.25.25,0,1,0-.49,0v9.35a1.56,1.56,0,0,1-3.12,0V123.51a.25.25,0,0,0-.49,0v6.84a1,1,0,0,1-2,0V122a2.5,2.5,0,0,1,2.5-2.5h6.77a2.5,2.5,0,0,1,2.5,2.5v8.35a1,1,0,0,1-2,0v-6.84a.25.25,0,0,0-.5,0v16.37a1.56,1.56,0,0,1-1.56,1.56Z"/><path class="cls-2" d="M236.36,115.53a2.84,2.84,0,1,1-2.84-2.84,2.84,2.84,0,0,1,2.84,2.84"/></g><g class="cls-1"><path class="cls-2" d="M125.12,103.48a1.55,1.55,0,0,1-1.56-1.55V92.58a.25.25,0,0,0-.25-.25.25.25,0,0,0-.25.25v9.35a1.56,1.56,0,0,1-3.11,0V85.56a.25.25,0,0,0-.5,0V92.4a1,1,0,0,1-2,0V84.05a2.5,2.5,0,0,1,2.5-2.5h6.77a2.5,2.5,0,0,1,2.5,2.5V92.4a1,1,0,0,1-2,0V85.56a.25.25,0,1,0-.49,0v16.37a1.55,1.55,0,0,1-1.56,1.55Z"/><path class="cls-2" d="M126.15,77.58a2.84,2.84,0,1,1-2.84-2.84,2.84,2.84,0,0,1,2.84,2.84"/></g><g class="cls-1"><path class="cls-2" d="M232.48,215a1.56,1.56,0,0,1-1.56-1.56v-9.34a.25.25,0,1,0-.49,0v9.34a1.56,1.56,0,0,1-3.12,0V197.12a.25.25,0,1,0-.49,0V204a1,1,0,0,1-2,0v-8.35a2.5,2.5,0,0,1,2.5-2.5h6.77a2.5,2.5,0,0,1,2.5,2.5V204a1,1,0,1,1-2,0v-6.84a.25.25,0,0,0-.5,0v16.36a1.56,1.56,0,0,1-1.56,1.56Z"/><path class="cls-2" d="M233.52,189.14a2.84,2.84,0,1,1-2.84-2.84,2.84,2.84,0,0,1,2.84,2.84"/></g><g class="cls-1"><path class="cls-2" d="M134.29,184.71a1.56,1.56,0,0,1-1.56-1.56V173.8a.25.25,0,0,0-.49,0v9.35a1.56,1.56,0,0,1-3.12,0V166.78a.25.25,0,0,0-.25-.24.25.25,0,0,0-.25.24v6.84a1,1,0,1,1-2,0v-8.35a2.5,2.5,0,0,1,2.5-2.5h6.77a2.5,2.5,0,0,1,2.5,2.5v8.35a1,1,0,1,1-2,0v-6.84a.25.25,0,0,0-.5,0v16.37a1.56,1.56,0,0,1-1.56,1.56Z"/><path class="cls-2" d="M135.33,158.8a2.84,2.84,0,1,1-2.84-2.84,2.85,2.85,0,0,1,2.84,2.84"/></g><g class="cls-1"><path class="cls-2" d="M146,127.29a1.57,1.57,0,0,1-1.56-1.56v-9.35a.25.25,0,1,0-.49,0v9.35a1.56,1.56,0,0,1-3.12,0V109.36a.25.25,0,0,0-.25-.25.25.25,0,0,0-.25.25v6.84a1,1,0,1,1-2,0v-8.35a2.5,2.5,0,0,1,2.5-2.5h6.77a2.5,2.5,0,0,1,2.5,2.5v8.35a1,1,0,1,1-2,0v-6.84a.25.25,0,1,0-.5,0v16.37a1.57,1.57,0,0,1-1.56,1.56Z"/><path class="cls-2" d="M147,101.38a2.84,2.84,0,1,1-2.84-2.84,2.85,2.85,0,0,1,2.84,2.84"/></g><g class="cls-1"><path class="cls-2" d="M12.38,83.34a1.56,1.56,0,0,1-1.56-1.56V72.43a.25.25,0,0,0-.5,0v9.35a1.56,1.56,0,0,1-3.11,0V65.41A.25.25,0,0,0,7,65.16a.25.25,0,0,0-.25.25v6.84a1,1,0,0,1-2,0V63.9a2.5,2.5,0,0,1,2.5-2.5H14a2.5,2.5,0,0,1,2.5,2.5v8.35a1,1,0,0,1-2,0V65.41a.25.25,0,1,0-.49,0V81.78a1.56,1.56,0,0,1-1.56,1.56Z"/><path class="cls-2" d="M13.41,57.43a2.84,2.84,0,1,1-2.84-2.84,2.84,2.84,0,0,1,2.84,2.84"/></g><g class="cls-1"><path class="cls-2" d="M110.16,209a1.56,1.56,0,0,1-1.56-1.56v-9.35a.25.25,0,1,0-.49,0v9.35a1.56,1.56,0,0,1-3.12,0V191.06a.25.25,0,0,0-.49,0v6.84a1,1,0,0,1-2,0v-8.35a2.5,2.5,0,0,1,2.5-2.5h6.77a2.5,2.5,0,0,1,2.5,2.5v8.35a1,1,0,1,1-2,0v-6.84a.25.25,0,0,0-.5,0v16.37a1.56,1.56,0,0,1-1.56,1.56Z"/><path class="cls-2" d="M111.2,183.08a2.84,2.84,0,1,1-2.84-2.84,2.84,2.84,0,0,1,2.84,2.84"/></g><g class="cls-1"><path class="cls-2" d="M67.56,161.88A1.54,1.54,0,0,1,66,160.33V151a.25.25,0,0,0-.25-.25.25.25,0,0,0-.25.25v9.35a1.56,1.56,0,0,1-3.12,0V144a.25.25,0,1,0-.49,0v6.84a1,1,0,0,1-2,0v-8.35a2.5,2.5,0,0,1,2.5-2.5h6.77a2.5,2.5,0,0,1,2.5,2.5v8.35a1,1,0,0,1-2,0V144a.25.25,0,0,0-.25-.25.25.25,0,0,0-.25.25v16.37a1.55,1.55,0,0,1-1.56,1.55Z"/><path class="cls-2" d="M68.6,136a2.84,2.84,0,1,1-2.84-2.84A2.84,2.84,0,0,1,68.6,136"/></g><g class="cls-1"><path class="cls-2" d="M54.27,79.26a1.56,1.56,0,0,1-1.56-1.56V68.36a.25.25,0,1,0-.49,0V77.7a1.56,1.56,0,0,1-3.12,0V61.34a.25.25,0,1,0-.49,0v6.84a1,1,0,0,1-2,0V59.83a2.51,2.51,0,0,1,2.5-2.51h6.77a2.51,2.51,0,0,1,2.5,2.51v8.35a1,1,0,0,1-2,0V61.34a.25.25,0,0,0-.5,0V77.7a1.56,1.56,0,0,1-1.56,1.56Z"/><path class="cls-2" d="M55.31,53.36a2.84,2.84,0,1,1-2.84-2.84,2.85,2.85,0,0,1,2.84,2.84"/></g><g class="cls-1"><path class="cls-2" d="M102.77,28.73a1.56,1.56,0,0,1-1.56-1.56V17.82a.25.25,0,1,0-.49,0v9.35a1.56,1.56,0,0,1-3.12,0V10.8a.25.25,0,0,0-.49,0v6.84a1,1,0,0,1-2,0V9.29a2.5,2.5,0,0,1,2.5-2.5h6.77a2.5,2.5,0,0,1,2.5,2.5v8.35a1,1,0,1,1-2,0V10.8a.25.25,0,0,0-.5,0V27.17a1.56,1.56,0,0,1-1.56,1.56Z"/><path class="cls-2" d="M103.81,2.82A2.84,2.84,0,1,1,101,0a2.84,2.84,0,0,1,2.84,2.84"/></g><g class="cls-1"><path class="cls-2" d="M17.77,35.44a1.56,1.56,0,0,1-1.56-1.56V24.54a.25.25,0,1,0-.49,0v9.34a1.56,1.56,0,0,1-3.12,0V17.52a.25.25,0,1,0-.49,0v6.84a1,1,0,0,1-2,0V16a2.5,2.5,0,0,1,2.5-2.5h6.77a2.5,2.5,0,0,1,2.5,2.5v8.35a1,1,0,1,1-2,0V17.52a.25.25,0,1,0-.5,0V33.88a1.56,1.56,0,0,1-1.56,1.56Z"/><path class="cls-2" d="M18.81,9.54A2.84,2.84,0,1,1,16,6.7a2.84,2.84,0,0,1,2.84,2.84"/></g><g class="cls-1"><path class="cls-2" d="M217.06,32.17a1.56,1.56,0,0,1-1.56-1.56V21.26a.25.25,0,1,0-.5,0v9.35a1.56,1.56,0,0,1-3.12,0V14.24a.25.25,0,0,0-.49,0v6.84a1,1,0,0,1-2,0V12.73a2.52,2.52,0,0,1,2.51-2.5h6.76a2.52,2.52,0,0,1,2.51,2.5v8.35a1,1,0,0,1-2,0V14.24a.25.25,0,0,0-.49,0V30.61a1.56,1.56,0,0,1-1.56,1.56Z"/><path class="cls-2" d="M218.09,6.26a2.84,2.84,0,1,1-2.84-2.84,2.84,2.84,0,0,1,2.84,2.84"/></g></g></g></svg>